<?xml version="1.0" standalone="no"?>
<!DOCTYPE svg PUBLIC "-//W3C//DTD SVG 20010904//EN"
 "http://www.w3.org/TR/2001/REC-SVG-20010904/DTD/svg10.dtd">
<svg version="1.0" xmlns="http://www.w3.org/2000/svg"
 width="500.000000pt" height="488.000000pt" viewBox="0 0 500.000000 488.000000"
 preserveAspectRatio="xMidYMid meet">

<g transform="translate(0.000000,488.000000) scale(0.100000,-0.100000)"
fill="#000000" stroke="none">
<path d="M0 2440 l0 -2440 2500 0 2500 0 0 2440 0 2440 -2500 0 -2500 0 0
-2440z m2590 2360 c0 -5 7 -10 16 -10 9 0 12 -5 8 -11 -4 -7 -7 -25 -6 -40 0
-16 -4 -29 -9 -29 -5 0 -9 -16 -9 -35 0 -19 5 -35 10 -35 6 0 10 14 10 30 0
17 5 30 10 30 6 0 10 18 10 40 0 22 3 40 6 40 3 0 19 -11 36 -25 16 -14 25
-25 19 -25 -6 0 -11 -13 -11 -30 0 -16 -4 -30 -10 -30 -5 0 -10 -11 -10 -25 0
-14 5 -25 10 -25 6 0 10 9 10 20 0 11 5 20 10 20 6 0 10 14 10 30 0 17 2 30 5
30 11 0 55 -49 55 -61 0 -7 7 -21 17 -31 12 -13 13 -18 3 -18 -8 0 -24 -10
-37 -22 -19 -18 -23 -32 -23 -80 0 -49 4 -63 25 -83 25 -26 59 -33 70 -15 11
18 35 11 35 -10 0 -11 5 -20 10 -20 6 0 10 -20 10 -45 0 -25 -4 -45 -10 -45
-5 0 -10 -16 -10 -35 0 -19 -4 -35 -10 -35 -5 0 -10 13 -10 29 0 17 5 33 10
36 6 3 10 26 10 51 0 24 -4 44 -10 44 -5 0 -10 -4 -10 -10 0 -5 -9 -10 -20
-10 -11 0 -20 -5 -20 -10 0 -10 -8 -22 -37 -55 -7 -7 -13 -25 -13 -39 0 -14
-4 -26 -10 -26 -5 0 -10 -6 -10 -13 0 -7 -9 -19 -20 -27 -11 -8 -20 -21 -20
-30 0 -8 -13 -26 -30 -40 -25 -20 -30 -33 -31 -70 -1 -25 -4 -36 -6 -26 -3 11
-22 35 -42 53 -33 30 -41 33 -106 33 -69 0 -72 -1 -107 -37 -19 -21 -38 -45
-41 -53 -3 -8 -6 6 -6 31 -1 39 -6 50 -31 70 -16 13 -30 30 -30 38 0 7 -8 21
-17 30 -24 22 -43 57 -43 79 0 10 -11 29 -25 42 -14 13 -25 29 -25 36 0 6 -8
14 -17 18 -10 3 -24 9 -30 12 -10 4 -13 -7 -13 -40 0 -25 5 -46 10 -46 6 0 10
-16 10 -35 0 -19 -4 -35 -10 -35 -5 0 -10 16 -10 35 0 19 -4 35 -10 35 -5 0
-10 20 -10 45 0 25 5 45 10 45 6 0 10 9 10 20 0 13 7 20 20 20 11 0 20 -4 20
-10 0 -18 43 -10 67 12 33 31 33 131 1 165 -12 13 -28 23 -36 23 -12 0 -10 6
6 23 12 13 22 28 22 34 0 11 34 53 44 53 3 0 6 -13 6 -30 0 -16 5 -30 10 -30
6 0 10 -9 10 -20 0 -11 5 -20 10 -20 6 0 10 11 10 25 0 14 -4 25 -9 25 -5 0
-11 16 -13 35 -3 27 1 40 17 55 29 27 35 25 35 -13 0 -18 4 -37 9 -42 5 -6 11
-20 13 -33 1 -12 8 -23 13 -23 14 0 19 41 6 54 -6 6 -11 26 -11 44 0 20 -5 33
-12 33 -7 0 -2 7 12 14 30 17 260 22 260 6z m231 -488 c-6 -2 -12 -25 -13 -50
l-1 -47 -4 41 c-4 46 17 114 25 79 2 -10 -1 -21 -7 -23z m-693 1 c14 -32 16
-93 2 -93 -5 0 -10 20 -10 45 0 25 -4 45 -10 45 -5 0 -10 7 -10 15 0 24 14 17
28 -12z m-8 -118 c0 -8 -4 -15 -10 -15 -5 0 -10 7 -10 15 0 8 5 15 10 15 6 0
10 -7 10 -15z m710 0 c0 -8 -4 -15 -10 -15 -5 0 -10 7 -10 15 0 8 5 15 10 15
6 0 10 -7 10 -15z m-664 -225 c9 0 29 -13 44 -30 33 -35 40 -37 40 -10 0 11 5
20 10 20 6 0 10 6 10 14 0 7 7 19 15 26 12 10 15 10 15 -1 0 -11 32 -14 165
-14 133 0 165 3 165 14 0 11 3 11 15 1 8 -7 15 -19 15 -26 0 -8 5 -14 10 -14
6 0 10 -9 10 -20 0 -27 7 -25 38 8 15 16 35 31 45 35 15 5 17 21 17 113 0 93
2 105 15 94 17 -14 21 -60 5 -60 -6 0 -10 -33 -10 -80 0 -68 -3 -84 -21 -103
-11 -12 -24 -22 -29 -22 -4 0 -22 -12 -39 -27 -17 -16 -34 -28 -38 -28 -5 0
-15 15 -22 32 -21 47 -60 83 -74 69 -14 -14 -197 -15 -197 -1 0 33 -58 -16
-81 -68 -7 -17 -18 -32 -22 -32 -5 0 -22 14 -38 31 -16 17 -32 28 -37 25 -5
-3 -19 6 -30 19 -19 21 -22 38 -22 105 0 47 -4 80 -10 80 -14 0 -12 44 3 59
10 10 13 -10 15 -98 2 -93 5 -111 18 -111z m54 90 c17 -24 30 -26 30 -5 0 21
13 19 28 -6 12 -19 11 -20 -7 -14 -12 4 -21 2 -21 -4 0 -6 -3 -11 -7 -10 -11
0 -56 59 -46 59 5 0 15 -9 23 -20z m520 15 c0 -2 -12 -16 -26 -30 -19 -19 -29
-23 -34 -15 -4 7 -12 10 -18 6 -6 -4 -8 2 -5 14 6 23 23 27 23 5 0 -21 13 -19
30 5 13 18 30 27 30 15z m-300 -20 c0 -8 5 -15 10 -15 6 0 10 7 10 15 0 8 5
15 10 15 14 0 12 -12 -6 -35 -13 -17 -16 -18 -24 -5 -9 13 -11 13 -20 0 -9
-13 -11 -13 -20 0 -9 13 -11 13 -19 0 -6 -8 -13 -11 -17 -8 -3 4 2 15 12 25
12 13 19 14 22 5 5 -17 22 -15 22 3 0 8 5 15 10 15 6 0 10 -7 10 -15z m56 -23
c-10 -11 -16 -12 -16 -4 0 7 5 12 10 12 6 0 10 8 11 18 0 11 2 13 6 4 3 -8 -2
-21 -11 -30z m61 13 c8 -9 12 -19 9 -23 -4 -3 -12 0 -17 8 -8 11 -12 12 -16 3
-2 -7 -9 -13 -14 -13 -5 0 -4 9 3 20 15 24 15 24 35 5z m-341 -189 c8 -8 14
-33 14 -55 0 -23 5 -41 10 -41 6 0 10 -20 10 -45 0 -25 5 -45 10 -45 6 0 10
-13 10 -30 0 -21 -5 -30 -16 -30 -26 0 -44 26 -44 64 0 20 -4 36 -10 36 -6 0
-10 33 -10 80 0 44 3 80 6 80 3 0 12 -6 20 -14z m524 -66 c0 -47 -4 -80 -10
-80 -5 0 -10 -16 -10 -36 0 -38 -18 -64 -44 -64 -18 0 -23 45 -6 55 6 3 10 26
10 51 0 24 5 44 10 44 6 0 10 18 10 40 0 38 15 69 33 70 4 0 7 -36 7 -80z
m-1304 -72 c28 -26 44 -50 44 -65 0 -12 -4 -23 -10 -23 -5 0 -10 7 -10 16 0
21 -25 44 -48 44 -10 0 -27 9 -37 20 -10 11 -24 20 -32 20 -11 0 -11 3 -1 15
22 24 47 17 94 -27z m113 2 c26 -26 41 -49 41 -65 0 -14 -4 -25 -10 -25 -5 0
-10 7 -10 16 0 22 -25 44 -49 44 -12 0 -26 9 -33 20 -7 11 -21 20 -31 20 -15
0 -16 2 -5 15 22 25 54 17 97 -25z m112 0 c21 -21 39 -46 39 -55 0 -21 -13
-19 -30 5 -8 11 -24 20 -35 20 -11 0 -27 9 -35 20 -8 11 -21 20 -28 20 -12 0
-12 3 -2 15 21 25 49 17 91 -25z m1705 25 c14 -13 13 -15 -3 -15 -10 0 -25 -9
-33 -20 -8 -11 -24 -20 -35 -20 -11 0 -27 -9 -35 -20 -17 -24 -30 -26 -30 -5
0 9 17 33 38 55 39 42 73 50 98 25z m110 0 c13 -13 13 -15 1 -15 -8 0 -22 -9
-32 -20 -10 -11 -27 -20 -37 -20 -23 0 -48 -23 -48 -44 0 -9 -4 -16 -10 -16
-24 0 -7 48 32 87 44 45 70 53 94 28z m110 0 c13 -13 13 -15 1 -15 -8 0 -22
-9 -32 -20 -10 -11 -27 -20 -37 -20 -23 0 -48 -23 -48 -44 0 -9 -4 -16 -10
-16 -25 0 -7 48 32 87 46 45 70 52 94 28z m-2247 -41 c17 -19 29 -40 25 -45
-3 -6 -13 -1 -24 11 -9 11 -29 20 -44 20 -14 0 -26 5 -26 10 0 6 -12 -1 -26
-16 -22 -21 -24 -28 -13 -35 11 -7 10 -11 -6 -23 -27 -21 -65 -20 -65 0 0 23
100 114 126 114 13 0 35 -15 53 -36z m2379 -13 c58 -54 67 -81 26 -81 -20 0
-24 4 -20 18 4 12 -5 29 -29 52 -19 19 -35 29 -35 22 0 -7 -10 -12 -22 -12
-12 0 -32 -10 -45 -22 -21 -19 -23 -20 -23 -4 0 21 58 76 80 76 9 0 39 -22 68
-49z m2 -51 c0 -5 -4 -10 -10 -10 -5 0 -10 5 -10 10 0 6 5 10 10 10 6 0 10 -4
10 -10z m-3577 -57 c-7 -2 -13 -13 -13 -24 0 -10 -7 -19 -15 -19 -9 0 -15 9
-15 25 0 21 5 25 28 24 15 0 21 -3 15 -6z m140 -5 c-6 -7 -13 -20 -16 -28 -3
-9 -6 -3 -6 13 -1 19 4 27 15 27 12 0 14 -4 7 -12z m150 0 c-6 -7 -13 -20 -16
-28 -3 -9 -6 -3 -6 13 -1 19 4 27 15 27 12 0 14 -4 7 -12z m160 5 c-7 -2 -13
-13 -13 -24 0 -10 -4 -19 -10 -19 -5 0 -10 11 -10 25 0 19 5 25 23 24 12 0 16
-3 10 -6z m150 0 c-7 -2 -13 -13 -13 -24 0 -10 -4 -19 -10 -19 -5 0 -10 11
-10 25 0 19 5 25 23 24 12 0 16 -3 10 -6z m150 0 c-7 -2 -13 -13 -13 -24 0
-10 -4 -19 -10 -19 -5 0 -10 11 -10 25 0 19 5 25 23 24 12 0 16 -3 10 -6z
m138 -12 c-6 -10 -7 -21 -4 -25 3 -3 1 -6 -5 -6 -7 0 -12 11 -12 25 0 16 6 25
15 25 12 0 13 -4 6 -19z m162 12 c-7 -2 -13 -13 -13 -24 0 -10 -4 -19 -10 -19
-5 0 -10 11 -10 25 0 19 5 25 23 24 12 0 16 -3 10 -6z m600 0 c-7 -2 -13 -13
-13 -24 0 -28 -15 -23 -18 6 -1 20 3 25 21 24 12 0 16 -3 10 -6z m150 0 c-7
-2 -13 -13 -13 -24 0 -10 -4 -19 -10 -19 -5 0 -10 11 -10 25 0 19 5 25 23 24
12 0 16 -3 10 -6z m150 0 c-7 -2 -13 -13 -13 -24 0 -10 -4 -19 -10 -19 -5 0
-10 11 -10 25 0 19 5 25 23 24 12 0 16 -3 10 -6z m150 0 c-7 -2 -13 -13 -13
-24 0 -10 -4 -19 -10 -19 -5 0 -10 11 -10 25 0 19 5 25 23 24 12 0 16 -3 10
-6z m150 -5 c-6 -7 -13 -20 -16 -28 -3 -9 -6 -3 -6 13 -1 19 4 27 15 27 12 0
14 -4 7 -12z m151 4 c-7 -4 -14 -16 -17 -27 -4 -15 -5 -14 -6 8 -1 20 4 27 17
27 11 0 13 -3 6 -8z m149 1 c-7 -2 -13 -13 -13 -24 0 -10 -4 -19 -10 -19 -5 0
-10 11 -10 25 0 19 5 25 23 24 12 0 16 -3 10 -6z m144 -18 c-15 -32 -27 -32
-27 0 0 18 5 25 19 25 17 0 18 -3 8 -25z m156 13 c-6 -7 -13 -20 -16 -28 -3
-9 -6 -3 -6 13 -1 19 4 27 15 27 12 0 14 -4 7 -12z m150 0 c-6 -7 -13 -20 -16
-28 -3 -9 -6 -3 -6 13 -1 19 4 27 15 27 12 0 14 -4 7 -12z m600 -8 c-8 -31
-23 -34 -23 -6 0 16 6 26 14 26 9 0 12 -7 9 -20z m149 -5 c-2 -14 -8 -25 -13
-25 -5 0 -9 11 -9 25 0 14 6 25 14 25 9 0 12 -8 8 -25z m151 13 c-6 -7 -13
-20 -16 -28 -3 -9 -6 -3 -6 13 -1 19 4 27 15 27 12 0 14 -4 7 -12z m150 0 c-6
-7 -13 -20 -16 -28 -3 -9 -6 -3 -6 13 -1 19 4 27 15 27 12 0 14 -4 7 -12z
m160 5 c-7 -2 -13 -13 -13 -24 0 -10 -4 -19 -10 -19 -5 0 -10 11 -10 25 0 19
5 25 23 24 12 0 16 -3 10 -6z m150 0 c-7 -2 -13 -13 -13 -24 0 -10 -4 -19 -10
-19 -5 0 -10 11 -10 25 0 19 5 25 23 24 12 0 16 -3 10 -6z m139 -18 c-2 -14
-8 -25 -13 -25 -5 0 -9 11 -9 25 0 14 6 25 14 25 9 0 12 -8 8 -25z m148 10
c-6 -8 -9 -19 -5 -25 3 -5 1 -10 -4 -10 -6 0 -11 11 -11 25 0 16 6 25 16 25
13 0 14 -3 4 -15z m-3460 -75 c0 -13 -7 -20 -20 -20 -13 0 -20 7 -20 20 0 13
7 20 20 20 13 0 20 -7 20 -20z m333 14 c9 -10 -4 -34 -19 -34 -8 0 -14 9 -14
20 0 19 19 27 33 14z m1637 -14 c0 -11 -7 -20 -15 -20 -8 0 -15 9 -15 20 0 11
7 20 15 20 8 0 15 -9 15 -20z m340 0 c0 -11 -7 -20 -15 -20 -8 0 -15 2 -15 4
0 2 -3 11 -6 20 -4 12 0 16 15 16 14 0 21 -6 21 -20z m1074 -7 c-17 -18 -29
-11 -21 11 4 9 13 13 21 10 14 -5 14 -8 0 -21z m159 8 c-4 -3 -11 -10 -15 -15
-5 -5 -8 0 -8 12 0 15 4 20 16 15 9 -3 12 -9 7 -12z m-4667 -6 c-8 -8 -17 -15
-20 -15 -3 0 -6 7 -6 15 0 9 9 15 21 15 18 0 19 -2 5 -15z m150 0 c-8 -8 -17
-15 -20 -15 -3 0 -6 7 -6 15 0 9 9 15 21 15 18 0 19 -2 5 -15z m158 8 c-5 -5
-12 -12 -16 -18 -4 -6 -8 -2 -8 8 0 9 7 17 17 17 9 0 12 -3 7 -7z m150 0 c-5
-5 -12 -12 -16 -18 -4 -6 -8 -2 -8 8 0 9 7 17 17 17 9 0 12 -3 7 -7z m142 -8
c-8 -8 -17 -15 -20 -15 -3 0 -6 7 -6 15 0 9 9 15 21 15 18 0 19 -2 5 -15z
m152 1 c-13 -14 -28 -12 -28 5 0 5 9 9 20 9 17 0 19 -2 8 -14z m156 7 c-5 -5
-12 -12 -16 -18 -4 -6 -8 -2 -8 8 0 9 7 17 17 17 9 0 12 -3 7 -7z m133 -15
c-3 -8 -6 -5 -6 6 -1 11 2 17 5 13 3 -3 4 -12 1 -19z m623 18 c0 -2 -7 -9 -15
-16 -12 -10 -15 -10 -15 4 0 9 7 16 15 16 8 0 15 -2 15 -4z m146 -11 c-8 -8
-17 -15 -20 -15 -3 0 -6 7 -6 15 0 9 9 15 21 15 18 0 19 -2 5 -15z m148 8 c-5
-5 -12 -12 -16 -18 -4 -6 -8 -2 -8 8 0 9 7 17 17 17 9 0 12 -3 7 -7z m156 3
c0 -2 -7 -9 -15 -16 -12 -10 -15 -10 -15 4 0 9 7 16 15 16 8 0 15 -2 15 -4z
m146 -11 c-8 -8 -17 -15 -20 -15 -3 0 -6 7 -6 15 0 9 9 15 21 15 18 0 19 -2 5
-15z m150 0 c-8 -8 -17 -15 -20 -15 -3 0 -6 7 -6 15 0 9 9 15 21 15 18 0 19
-2 5 -15z m148 0 c-4 -8 -10 -15 -15 -15 -5 0 -9 7 -9 15 0 8 7 15 15 15 9 0
12 -6 9 -15z m150 0 c-4 -8 -10 -15 -15 -15 -5 0 -9 7 -9 15 0 8 7 15 15 15 9
0 12 -6 9 -15z m152 0 c-8 -8 -17 -15 -20 -15 -3 0 -6 7 -6 15 0 9 9 15 21 15
18 0 19 -2 5 -15z m150 0 c-8 -8 -17 -15 -20 -15 -3 0 -6 7 -6 15 0 9 9 15 21
15 18 0 19 -2 5 -15z m600 0 c-8 -8 -17 -15 -20 -15 -3 0 -6 7 -6 15 0 9 9 15
21 15 18 0 19 -2 5 -15z m150 0 c-8 -8 -17 -15 -20 -15 -3 0 -6 7 -6 15 0 9 9
15 21 15 18 0 19 -2 5 -15z m150 0 c-8 -8 -17 -15 -20 -15 -3 0 -6 7 -6 15 0
9 9 15 21 15 18 0 19 -2 5 -15z m158 8 c-5 -5 -12 -12 -16 -18 -4 -6 -8 -2 -8
8 0 9 7 17 17 17 9 0 12 -3 7 -7z m150 0 c-5 -5 -12 -12 -16 -18 -4 -6 -8 -2
-8 8 0 9 7 17 17 17 9 0 12 -3 7 -7z m142 -8 c-8 -8 -17 -15 -20 -15 -3 0 -6
7 -6 15 0 9 9 15 21 15 18 0 19 -2 5 -15z m-3126 -10 c0 -8 -9 -15 -20 -15
-11 0 -20 7 -20 15 0 8 9 15 20 15 11 0 20 -7 20 -15z m110 0 c0 -8 -7 -15
-15 -15 -8 0 -15 7 -15 15 0 8 7 15 15 15 8 0 15 -7 15 -15z m1860 0 c0 -8 -7
-15 -15 -15 -8 0 -15 7 -15 15 0 8 7 15 15 15 8 0 15 -7 15 -15z m113 0 c1 -5
-6 -11 -15 -13 -11 -2 -18 3 -18 13 0 17 30 18 33 0z m-3386 -70 c-15 -32 -37
-32 -37 0 0 20 5 25 24 25 22 0 23 -2 13 -25z m153 15 c0 -5 -4 -10 -9 -10 -5
0 -12 -8 -14 -17 -3 -11 -5 -7 -6 10 -1 18 4 27 14 27 8 0 15 -4 15 -10z m150
0 c0 -5 -4 -10 -9 -10 -5 0 -12 -8 -14 -17 -3 -11 -5 -7 -6 10 -1 18 4 27 14
27 8 0 15 -4 15 -10z m147 -15 c-15 -32 -27 -32 -27 0 0 18 5 25 19 25 17 0
18 -3 8 -25z m150 0 c-15 -32 -27 -32 -27 0 0 18 5 25 19 25 17 0 18 -3 8 -25z
m150 0 c-15 -32 -27 -32 -27 0 0 18 5 25 19 25 17 0 18 -3 8 -25z m149 9 c-3
-9 -6 -20 -6 -25 0 -5 -4 -9 -10 -9 -5 0 -10 11 -10 25 0 16 6 25 16 25 11 0
14 -5 10 -16z m151 -9 c-15 -32 -27 -32 -27 0 0 18 5 25 19 25 17 0 18 -3 8
-25z m150 0 c-15 -32 -27 -32 -27 0 0 18 5 25 19 25 17 0 18 -3 8 -25z m150 0
c-15 -32 -27 -32 -27 0 0 18 5 25 19 25 17 0 18 -3 8 -25z m150 0 c-15 -32
-27 -32 -27 0 0 18 5 25 19 25 17 0 18 -3 8 -25z m150 0 c-15 -32 -24 -32 -24
0 0 17 5 25 17 25 16 0 17 -3 7 -25z m150 0 c-15 -32 -27 -32 -27 0 0 18 5 25
19 25 17 0 18 -3 8 -25z m150 0 c-15 -32 -27 -32 -27 0 0 18 5 25 19 25 17 0
18 -3 8 -25z m150 0 c-15 -32 -27 -32 -27 0 0 18 5 25 19 25 17 0 18 -3 8 -25z
m156 13 c-6 -7 -13 -20 -16 -28 -3 -9 -6 -3 -6 13 -1 19 4 27 15 27 12 0 14
-4 7 -12z m150 0 c-6 -7 -13 -20 -16 -28 -3 -9 -6 -3 -6 13 -1 19 4 27 15 27
12 0 14 -4 7 -12z m144 -13 c-15 -32 -27 -32 -27 0 0 18 5 25 19 25 17 0 18
-3 8 -25z m150 0 c-15 -32 -27 -32 -27 0 0 18 5 25 19 25 17 0 18 -3 8 -25z
m163 15 c0 -5 -4 -10 -9 -10 -5 0 -12 -8 -14 -17 -3 -11 -5 -7 -6 10 -1 18 4
27 14 27 8 0 15 -4 15 -10z m143 -2 c-6 -7 -13 -20 -16 -28 -3 -9 -6 -3 -6 13
-1 19 4 27 15 27 12 0 14 -4 7 -12z m150 0 c-6 -7 -13 -20 -16 -28 -3 -9 -6
-3 -6 13 -1 19 4 27 15 27 12 0 14 -4 7 -12z m157 2 c0 -5 -4 -10 -9 -10 -5 0
-12 -8 -14 -17 -3 -11 -5 -7 -6 10 -1 18 4 27 14 27 8 0 15 -4 15 -10z m150 0
c0 -5 -4 -10 -9 -10 -5 0 -12 -8 -14 -17 -3 -11 -5 -7 -6 10 -1 18 4 27 14 27
8 0 15 -4 15 -10z m150 0 c0 -5 -4 -10 -10 -10 -5 0 -7 -7 -4 -15 4 -8 1 -15
-5 -15 -6 0 -11 11 -11 25 0 16 6 25 15 25 8 0 15 -4 15 -10z m146 -6 c-3 -9
-6 -20 -6 -25 0 -5 -4 -9 -10 -9 -5 0 -10 11 -10 25 0 16 6 25 16 25 11 0 14
-5 10 -16z m154 6 c0 -5 -4 -10 -9 -10 -5 0 -12 -8 -14 -17 -3 -11 -5 -7 -6
10 -1 18 4 27 14 27 8 0 15 -4 15 -10z m150 0 c0 -5 -4 -10 -9 -10 -5 0 -12
-8 -14 -17 -3 -11 -5 -7 -6 10 -1 18 4 27 14 27 8 0 15 -4 15 -10z m147 -15
c-15 -32 -27 -32 -27 0 0 18 5 25 19 25 17 0 18 -3 8 -25z m150 0 c-15 -32
-27 -32 -27 0 0 18 5 25 19 25 17 0 18 -3 8 -25z m149 9 c-3 -9 -6 -20 -6 -25
0 -5 -4 -9 -10 -9 -5 0 -10 11 -10 25 0 16 6 25 16 25 11 0 14 -5 10 -16z
m150 0 c-3 -9 -6 -20 -6 -25 0 -5 -4 -9 -10 -9 -5 0 -10 11 -10 25 0 16 6 25
16 25 11 0 14 -5 10 -16z m-4590 -79 c-8 -8 -17 -15 -20 -15 -3 0 -6 7 -6 15
0 9 9 15 21 15 18 0 19 -2 5 -15z m152 1 c-13 -14 -28 -12 -28 5 0 5 9 9 20 9
17 0 19 -2 8 -14z m156 7 c-5 -5 -12 -12 -16 -18 -4 -6 -8 -2 -8 8 0 9 7 17
17 17 9 0 12 -3 7 -7z m150 0 c-5 -5 -12 -12 -16 -18 -4 -6 -8 -2 -8 8 0 9 7
17 17 17 9 0 12 -3 7 -7z m142 -8 c-8 -8 -17 -15 -20 -15 -3 0 -6 7 -6 15 0 9
9 15 21 15 18 0 19 -2 5 -15z m152 1 c-13 -14 -28 -12 -28 5 0 5 9 9 20 9 17
0 19 -2 8 -14z m156 7 c-5 -5 -12 -12 -16 -18 -4 -6 -8 -2 -8 8 0 9 7 17 17
17 9 0 12 -3 7 -7z m150 0 c-5 -5 -12 -12 -16 -18 -4 -6 -8 -2 -8 8 0 9 7 17
17 17 9 0 12 -3 7 -7z m150 0 c-5 -5 -12 -12 -16 -18 -4 -6 -8 -2 -8 8 0 9 7
17 17 17 9 0 12 -3 7 -7z m150 0 c-5 -5 -12 -12 -16 -18 -4 -6 -8 -2 -8 8 0 9
7 17 17 17 9 0 12 -3 7 -7z m150 0 c-5 -5 -12 -12 -16 -18 -4 -6 -8 -2 -8 8 0
9 7 17 17 17 9 0 12 -3 7 -7z m156 3 c0 -2 -7 -9 -15 -16 -12 -10 -15 -10 -15
4 0 9 7 16 15 16 8 0 15 -2 15 -4z m150 0 c0 -2 -7 -9 -15 -16 -12 -10 -15
-10 -15 4 0 9 7 16 15 16 8 0 15 -2 15 -4z m144 -3 c-5 -5 -12 -12 -16 -18 -4
-6 -8 -2 -8 8 0 9 7 17 17 17 9 0 12 -3 7 -7z m150 0 c-5 -5 -12 -12 -16 -18
-4 -6 -8 -2 -8 8 0 9 7 17 17 17 9 0 12 -3 7 -7z m156 3 c0 -2 -7 -9 -15 -16
-12 -10 -15 -10 -15 4 0 9 7 16 15 16 8 0 15 -2 15 -4z m146 -11 c-8 -8 -17
-15 -20 -15 -3 0 -6 7 -6 15 0 9 9 15 21 15 18 0 19 -2 5 -15z m148 0 c-4 -8
-10 -15 -15 -15 -5 0 -9 7 -9 15 0 8 7 15 15 15 9 0 12 -6 9 -15z m156 11 c0
-2 -7 -9 -15 -16 -12 -10 -15 -10 -15 4 0 9 7 16 15 16 8 0 15 -2 15 -4z m150
0 c0 -2 -7 -9 -15 -16 -12 -10 -15 -10 -15 4 0 9 7 16 15 16 8 0 15 -2 15 -4z
m146 -11 c-8 -8 -17 -15 -20 -15 -3 0 -6 7 -6 15 0 9 9 15 21 15 18 0 19 -2 5
-15z m150 0 c-8 -8 -17 -15 -20 -15 -3 0 -6 7 -6 15 0 9 9 15 21 15 18 0 19
-2 5 -15z m148 0 c-4 -8 -10 -15 -15 -15 -5 0 -9 7 -9 15 0 8 7 15 15 15 9 0
12 -6 9 -15z m154 1 c-13 -14 -28 -12 -28 5 0 5 9 9 20 9 17 0 19 -2 8 -14z
m148 -1 c-8 -8 -17 -15 -20 -15 -3 0 -6 7 -6 15 0 9 9 15 21 15 18 0 19 -2 5
-15z m150 0 c-8 -8 -17 -15 -20 -15 -3 0 -6 7 -6 15 0 9 9 15 21 15 18 0 19
-2 5 -15z m152 1 c-13 -14 -28 -12 -28 5 0 5 9 9 20 9 17 0 19 -2 8 -14z m156
7 c-5 -5 -12 -12 -16 -18 -4 -6 -8 -2 -8 8 0 9 7 17 17 17 9 0 12 -3 7 -7z
m150 0 c-5 -5 -12 -12 -16 -18 -4 -6 -8 -2 -8 8 0 9 7 17 17 17 9 0 12 -3 7
-7z m142 -8 c-8 -8 -17 -15 -20 -15 -3 0 -6 7 -6 15 0 9 9 15 21 15 18 0 19
-2 5 -15z m152 1 c-13 -14 -28 -12 -28 5 0 5 9 9 20 9 17 0 19 -2 8 -14z m156
7 c-5 -5 -12 -12 -16 -18 -4 -6 -8 -2 -8 8 0 9 7 17 17 17 9 0 12 -3 7 -7z
m-4737 -88 c-14 -29 -37 -33 -37 -7 0 23 8 32 31 32 15 0 16 -3 6 -25z m153
15 c0 -5 -4 -10 -9 -10 -5 0 -12 -8 -14 -17 -3 -11 -5 -7 -6 10 -1 18 4 27 14
27 8 0 15 -4 15 -10z m150 0 c0 -5 -4 -10 -9 -10 -5 0 -12 -8 -14 -17 -3 -11
-5 -7 -6 10 -1 18 4 27 14 27 8 0 15 -4 15 -10z m147 -15 c-15 -32 -27 -32
-27 0 0 18 5 25 19 25 17 0 18 -3 8 -25z m150 0 c-15 -32 -27 -32 -27 0 0 18
5 25 19 25 17 0 18 -3 8 -25z m150 0 c-15 -32 -27 -32 -27 0 0 18 5 25 19 25
17 0 18 -3 8 -25z m149 9 c-3 -9 -6 -20 -6 -25 0 -5 -4 -9 -10 -9 -5 0 -10 11
-10 25 0 16 6 25 16 25 11 0 14 -5 10 -16z m151 -9 c-15 -32 -27 -32 -27 0 0
18 5 25 19 25 17 0 18 -3 8 -25z m150 0 c-15 -32 -27 -32 -27 0 0 18 5 25 19
25 17 0 18 -3 8 -25z m163 15 c0 -5 -4 -10 -10 -10 -5 0 -10 -7 -10 -15 0 -8
-4 -15 -10 -15 -5 0 -10 11 -10 25 0 18 5 25 20 25 11 0 20 -4 20 -10z m150 0
c0 -5 -4 -10 -10 -10 -5 0 -10 -7 -10 -15 0 -8 -4 -15 -10 -15 -5 0 -10 11
-10 25 0 18 5 25 20 25 11 0 20 -4 20 -10z m137 -15 c-19 -41 -32 -24 -18 23
1 1 7 2 15 2 11 0 12 -5 3 -25z m150 0 c-15 -32 -27 -32 -27 0 0 18 5 25 19
25 17 0 18 -3 8 -25z m163 15 c0 -5 -4 -10 -10 -10 -5 0 -10 -7 -10 -15 0 -8
-4 -15 -10 -15 -5 0 -10 11 -10 25 0 18 5 25 20 25 11 0 20 -4 20 -10z m150 0
c0 -5 -4 -10 -10 -10 -5 0 -10 -7 -10 -15 0 -8 -4 -15 -10 -15 -5 0 -10 11
-10 25 0 18 5 25 20 25 11 0 20 -4 20 -10z m143 -2 c-6 -7 -13 -20 -16 -28 -3
-9 -6 -3 -6 13 -1 19 4 27 15 27 12 0 14 -4 7 -12z m157 2 c0 -5 -4 -10 -9
-10 -5 0 -12 -8 -14 -17 -3 -11 -5 -7 -6 10 -1 18 4 27 14 27 8 0 15 -4 15
-10z m150 0 c0 -5 -4 -10 -10 -10 -5 0 -10 -7 -10 -15 0 -8 -4 -15 -10 -15 -5
0 -10 11 -10 25 0 18 5 25 20 25 11 0 20 -4 20 -10z m150 0 c0 -5 -4 -10 -10
-10 -5 0 -10 -7 -10 -15 0 -8 -4 -15 -10 -15 -11 0 -14 33 -3 43 10 11 33 8
33 -3z m150 0 c0 -5 -4 -10 -9 -10 -5 0 -12 -8 -14 -17 -3 -11 -5 -7 -6 10 -1
18 4 27 14 27 8 0 15 -4 15 -10z m150 0 c0 -5 -4 -10 -9 -10 -5 0 -12 -8 -14
-17 -3 -11 -5 -7 -6 10 -1 18 4 27 14 27 8 0 15 -4 15 -10z m150 0 c0 -5 -4
-10 -9 -10 -5 0 -12 -8 -14 -17 -3 -11 -5 -7 -6 10 -1 18 4 27 14 27 8 0 15
-4 15 -10z m150 0 c0 -5 -4 -10 -9 -10 -5 0 -12 -8 -14 -17 -3 -11 -5 -7 -6
10 -1 18 4 27 14 27 8 0 15 -4 15 -10z m150 0 c0 -5 -4 -10 -9 -10 -5 0 -12
-8 -14 -17 -3 -11 -5 -7 -6 10 -1 18 4 27 14 27 8 0 15 -4 15 -10z m150 0 c0
-5 -5 -10 -11 -10 -6 0 -9 -7 -5 -15 3 -8 1 -15 -4 -15 -6 0 -10 11 -10 25 0
16 6 25 15 25 8 0 15 -4 15 -10z m146 -6 c-3 -9 -6 -20 -6 -25 0 -5 -4 -9 -10
-9 -5 0 -10 11 -10 25 0 16 6 25 16 25 11 0 14 -5 10 -16z m154 6 c0 -5 -4
-10 -9 -10 -5 0 -12 -8 -14 -17 -3 -11 -5 -7 -6 10 -1 18 4 27 14 27 8 0 15
-4 15 -10z m150 0 c0 -5 -4 -10 -9 -10 -5 0 -12 -8 -14 -17 -3 -11 -5 -7 -6
10 -1 18 4 27 14 27 8 0 15 -4 15 -10z m147 -15 c-15 -32 -27 -32 -27 0 0 18
5 25 19 25 17 0 18 -3 8 -25z m150 0 c-15 -32 -27 -32 -27 0 0 18 5 25 19 25
17 0 18 -3 8 -25z m149 9 c-3 -9 -6 -20 -6 -25 0 -5 -4 -9 -10 -9 -5 0 -10 11
-10 25 0 16 6 25 16 25 11 0 14 -5 10 -16z m154 6 c0 -5 -4 -10 -10 -10 -5 0
-7 -7 -4 -15 4 -8 1 -15 -5 -15 -6 0 -11 11 -11 25 0 16 6 25 15 25 8 0 15 -4
15 -10z m-4580 -66 c0 -7 -27 -34 -34 -34 -3 0 -6 9 -6 20 0 13 7 20 20 20 11
0 20 -3 20 -6z m150 0 c0 -10 -31 -36 -37 -31 -10 10 6 37 22 37 8 0 15 -3 15
-6z m150 0 c0 -3 -7 -12 -15 -20 -13 -14 -15 -13 -15 5 0 12 6 21 15 21 8 0
15 -3 15 -6z m150 0 c0 -3 -7 -12 -15 -20 -13 -14 -15 -13 -15 5 0 12 6 21 15
21 8 0 15 -3 15 -6z m150 0 c0 -10 -31 -36 -37 -31 -10 10 6 37 22 37 8 0 15
-3 15 -6z m150 0 c0 -3 -6 -12 -14 -20 -16 -15 -32 -2 -21 16 7 11 35 14 35 4z
m150 0 c0 -3 -7 -12 -15 -20 -13 -14 -15 -13 -15 5 0 12 6 21 15 21 8 0 15 -3
15 -6z m150 -3 c0 -5 -7 -14 -15 -21 -13 -10 -15 -9 -15 9 0 12 6 21 15 21 8
0 15 -4 15 -9z m150 3 c0 -3 -7 -12 -15 -20 -13 -14 -15 -13 -15 5 0 12 6 21
15 21 8 0 15 -3 15 -6z m150 0 c0 -3 -7 -12 -15 -20 -13 -14 -15 -13 -15 5 0
12 6 21 15 21 8 0 15 -3 15 -6z m150 0 c0 -3 -7 -12 -15 -20 -13 -14 -15 -13
-15 5 0 12 6 21 15 21 8 0 15 -3 15 -6z m150 -3 c0 -5 -7 -14 -15 -21 -13 -10
-15 -9 -15 9 0 12 6 21 15 21 8 0 15 -4 15 -9z m153 3 c6 -6 -16 -34 -27 -34
-3 0 -6 9 -6 20 0 19 20 27 33 14z m147 0 c0 -3 -7 -12 -15 -20 -13 -14 -15
-13 -15 5 0 12 6 21 15 21 8 0 15 -3 15 -6z m150 -3 c0 -5 -7 -14 -15 -21 -13
-10 -15 -9 -15 9 0 12 6 21 15 21 8 0 15 -4 15 -9z m150 0 c0 -5 -7 -14 -15
-21 -13 -10 -15 -9 -15 9 0 12 6 21 15 21 8 0 15 -4 15 -9z m153 3 c6 -6 -16
-34 -27 -34 -3 0 -6 9 -6 20 0 19 20 27 33 14z m147 2 c0 -2 -3 -11 -6 -20 -9
-23 -24 -20 -24 4 0 11 7 20 15 20 8 0 15 -2 15 -4z m150 -5 c0 -5 -7 -14 -15
-21 -12 -10 -15 -10 -15 2 0 8 3 18 7 21 9 10 23 9 23 -2z m150 5 c0 -2 -3
-11 -6 -20 -9 -23 -24 -20 -24 4 0 11 7 20 15 20 8 0 15 -2 15 -4z m153 -2 c6
-6 -16 -34 -27 -34 -3 0 -6 9 -6 20 0 19 20 27 33 14z m157 0 c0 -3 -6 -12
-14 -20 -20 -19 -26 -18 -26 6 0 13 7 20 20 20 11 0 20 -3 20 -6z m140 -1 c0
-5 -4 -15 -10 -23 -11 -18 -25 -7 -17 15 6 15 27 21 27 8z m153 0 c3 -5 -1
-14 -9 -20 -14 -14 -30 0 -19 17 7 12 22 13 28 3z m157 1 c0 -3 -6 -12 -14
-20 -20 -19 -26 -18 -26 6 0 13 7 20 20 20 11 0 20 -3 20 -6z m150 0 c0 -3 -6
-12 -14 -20 -20 -19 -26 -18 -26 6 0 13 7 20 20 20 11 0 20 -3 20 -6z m150 0
c0 -10 -31 -36 -37 -31 -10 10 6 37 22 37 8 0 15 -3 15 -6z m143 -1 c3 -5 -1
-14 -9 -21 -12 -11 -14 -9 -14 8 0 20 14 27 23 13z m157 1 c0 -3 -7 -12 -15
-20 -13 -14 -15 -13 -15 5 0 12 6 21 15 21 8 0 15 -3 15 -6z m150 0 c0 -10
-31 -36 -37 -31 -10 10 6 37 22 37 8 0 15 -3 15 -6z m150 0 c0 -3 -6 -12 -14
-20 -16 -15 -32 -2 -21 16 7 11 35 14 35 4z m150 0 c0 -3 -7 -12 -15 -20 -13
-14 -15 -13 -15 5 0 12 6 21 15 21 8 0 15 -3 15 -6z m-4743 -99 c-14 -29 -37
-33 -37 -7 0 23 8 32 31 32 15 0 16 -3 6 -25z m153 15 c0 -5 -4 -10 -9 -10 -5
0 -12 -8 -14 -17 -3 -11 -5 -7 -6 10 -1 18 4 27 14 27 8 0 15 -4 15 -10z m150
0 c0 -5 -4 -10 -9 -10 -5 0 -12 -8 -14 -17 -3 -11 -5 -7 -6 10 -1 18 4 27 14
27 8 0 15 -4 15 -10z m146 -6 c-3 -9 -6 -20 -6 -25 0 -5 -4 -9 -10 -9 -5 0
-10 11 -10 25 0 16 6 25 16 25 11 0 14 -5 10 -16z m3760 0 c-3 -9 -6 -20 -6
-25 0 -5 -4 -9 -10 -9 -5 0 -10 11 -10 25 0 16 6 25 16 25 11 0 14 -5 10 -16z
m151 -9 c-15 -32 -27 -32 -27 0 0 18 5 25 19 25 17 0 18 -3 8 -25z m149 9 c-3
-9 -6 -20 -6 -25 0 -5 -4 -9 -10 -9 -5 0 -10 11 -10 25 0 16 6 25 16 25 11 0
14 -5 10 -16z m154 6 c0 -5 -4 -10 -9 -10 -5 0 -12 -8 -14 -17 -3 -11 -5 -7
-6 10 -1 18 4 27 14 27 8 0 15 -4 15 -10z m-4587 -66 c3 -4 -1 -13 -9 -21 -17
-18 -29 -11 -21 12 7 16 19 20 30 9z m157 0 c0 -10 -31 -36 -37 -31 -10 10 6
37 22 37 8 0 15 -3 15 -6z m150 0 c0 -3 -7 -12 -15 -20 -13 -14 -15 -13 -15 5
0 12 6 21 15 21 8 0 15 -3 15 -6z m143 -1 c3 -5 -1 -14 -9 -21 -12 -11 -14 -9
-14 8 0 20 14 27 23 13z m3760 0 c3 -5 -1 -14 -9 -21 -12 -11 -14 -9 -14 8 0
20 14 27 23 13z m150 1 c3 -4 -1 -13 -9 -21 -17 -18 -29 -11 -21 12 7 16 19
20 30 9z m157 0 c0 -3 -6 -12 -14 -20 -16 -15 -32 -2 -21 16 7 11 35 14 35 4z
m150 0 c0 -3 -7 -12 -15 -20 -13 -14 -15 -13 -15 5 0 12 6 21 15 21 8 0 15 -3
15 -6z m-4735 -84 c3 -5 1 -10 -4 -10 -6 0 -11 -7 -11 -15 0 -8 -7 -15 -15
-15 -15 0 -21 31 -8 43 10 10 31 8 38 -3z m145 0 c0 -5 -4 -10 -9 -10 -5 0
-12 -8 -14 -17 -3 -11 -5 -7 -6 10 -1 18 4 27 14 27 8 0 15 -4 15 -10z m150 0
c0 -5 -4 -10 -9 -10 -5 0 -12 -8 -14 -17 -3 -11 -5 -7 -6 10 -1 18 4 27 14 27
8 0 15 -4 15 -10z m146 -6 c-3 -9 -6 -20 -6 -25 0 -5 -4 -9 -10 -9 -5 0 -10
11 -10 25 0 16 6 25 16 25 11 0 14 -5 10 -16z m3760 0 c-3 -9 -6 -20 -6 -25 0
-5 -4 -9 -10 -9 -5 0 -10 11 -10 25 0 16 6 25 16 25 11 0 14 -5 10 -16z m159
6 c3 -5 1 -10 -4 -10 -6 0 -11 -7 -11 -15 0 -8 -4 -15 -10 -15 -5 0 -10 11
-10 25 0 25 23 35 35 15z m141 -6 c-3 -9 -6 -20 -6 -25 0 -5 -4 -9 -10 -9 -5
0 -10 11 -10 25 0 16 6 25 16 25 11 0 14 -5 10 -16z m150 0 c-3 -9 -6 -20 -6
-25 0 -5 -4 -9 -10 -9 -5 0 -10 11 -10 25 0 16 6 25 16 25 11 0 14 -5 10 -16z
m-3281 -24 c3 -5 -3 -10 -14 -10 -19 0 -21 -6 -21 -60 0 -53 -2 -60 -20 -60
-18 0 -20 7 -20 60 0 54 -2 60 -21 60 -11 0 -17 5 -14 10 3 6 28 10 55 10 27
0 52 -4 55 -10z m55 -20 c0 -27 3 -30 30 -30 25 0 30 4 30 24 0 29 19 44 30
26 4 -7 7 -38 6 -69 -1 -44 -5 -56 -19 -59 -13 -3 -17 3 -17 27 0 28 -3 31
-30 31 -27 0 -30 -3 -30 -31 0 -24 -4 -30 -17 -27 -14 2 -19 15 -21 57 -4 63
2 81 23 81 10 0 15 -10 15 -30z m245 21 c3 -6 -16 -11 -42 -13 -36 -2 -49 -7
-51 -20 -3 -14 4 -18 32 -18 48 0 55 -18 9 -22 -59 -5 -51 -32 12 -39 66 -7
37 -21 -36 -17 l-54 3 -3 54 c-2 29 -1 60 2 67 6 16 121 20 131 5z m137 -8
c23 -21 23 -32 -4 -54 l-21 -19 23 -20 c20 -17 20 -20 6 -26 -10 -4 -26 5 -45
25 l-29 31 -6 -30 c-3 -18 -12 -30 -21 -30 -12 0 -15 14 -15 70 l0 70 47 0
c29 0 53 -6 65 -17z m163 7 c4 -6 -12 -10 -39 -10 -39 0 -46 -3 -46 -20 0 -16
7 -20 35 -20 19 0 35 -4 35 -10 0 -5 -16 -10 -35 -10 -28 0 -35 -4 -35 -20 0
-17 7 -20 45 -20 25 0 45 -4 45 -10 0 -6 -28 -10 -65 -10 l-65 0 0 70 0 70 59
0 c33 0 63 -4 66 -10z m220 -15 c31 -30 37 -115 9 -115 -9 0 -18 9 -21 20 -3
13 -14 20 -29 20 -17 0 -24 -6 -24 -20 0 -13 -7 -20 -20 -20 -17 0 -20 7 -20
42 0 32 6 49 27 70 33 34 47 35 78 3z m161 11 c18 -19 18 -41 -2 -61 -15 -15
-15 -17 0 -34 37 -41 7 -42 -37 -1 l-32 30 -5 -28 c-3 -15 -12 -27 -20 -27
-11 0 -16 14 -18 54 -2 29 -1 60 2 67 7 19 93 19 112 0z m159 4 c4 -6 -12 -10
-39 -10 -39 0 -46 -3 -46 -20 0 -16 7 -20 34 -20 19 0 38 -4 41 -10 4 -6 -10
-10 -34 -10 -34 0 -41 -3 -41 -20 0 -17 7 -20 45 -20 25 0 45 -4 45 -10 0 -6
-28 -10 -65 -10 l-65 0 0 63 c0 35 3 67 7 70 10 11 111 8 118 -3z m229 1 c3
-5 -3 -11 -14 -14 -17 -4 -20 -14 -20 -62 0 -48 -3 -56 -17 -53 -14 2 -19 15
-21 61 -3 49 -6 57 -23 57 -11 0 -17 5 -14 10 8 12 102 13 109 1z m96 0 c0 -6
-4 -13 -10 -16 -5 -3 -10 -24 -10 -45 0 -21 5 -42 10 -45 20 -13 9 -25 -22
-25 l-33 0 0 70 0 70 33 0 c17 0 32 -4 32 -9z m135 -1 c3 -5 -3 -10 -14 -10
-17 0 -20 -8 -23 -57 -2 -46 -7 -59 -20 -61 -15 -3 -18 5 -18 53 0 48 -3 58
-20 62 -11 3 -17 9 -14 14 7 12 101 11 109 -1z m129 -19 c22 -23 27 -36 24
-67 -2 -27 -8 -40 -20 -42 -13 -2 -18 3 -18 17 0 17 -6 21 -30 21 -24 0 -30
-4 -30 -21 0 -14 -5 -19 -17 -17 -13 2 -19 15 -21 44 -2 33 2 45 24 67 34 34
54 34 88 -2z m93 -1 c18 -17 34 -30 37 -30 4 0 6 14 6 30 0 20 5 30 15 30 12
0 15 -14 15 -70 0 -79 -8 -85 -50 -40 -15 17 -31 30 -34 30 -3 0 -6 -13 -6
-30 0 -23 -4 -30 -20 -30 -18 0 -20 7 -20 63 0 88 7 94 57 47z m191 18 c7 -7
12 -16 12 -20 0 -13 -28 -9 -32 4 -6 16 -38 2 -38 -17 0 -10 10 -15 31 -15 31
0 59 -19 59 -40 0 -40 -83 -55 -115 -20 -18 19 -17 20 3 20 12 0 22 -5 22 -11
0 -6 12 -9 28 -7 40 5 35 32 -7 36 -32 3 -61 21 -61 38 0 34 72 58 98 32z
m-3322 -53 c-8 -8 -17 -15 -20 -15 -3 0 -6 7 -6 15 0 9 9 15 21 15 18 0 19 -2
5 -15z m150 0 c-8 -8 -17 -15 -20 -15 -3 0 -6 7 -6 15 0 9 9 15 21 15 18 0 19
-2 5 -15z m158 8 c-5 -5 -12 -12 -16 -18 -4 -6 -8 -2 -8 8 0 9 7 17 17 17 9 0
12 -3 7 -7z m150 0 c-5 -5 -12 -12 -16 -18 -4 -6 -8 -2 -8 8 0 9 7 17 17 17 9
0 12 -3 7 -7z m3760 0 c-5 -5 -12 -12 -16 -18 -4 -6 -8 -2 -8 8 0 9 7 17 17
17 9 0 12 -3 7 -7z m142 -8 c-8 -8 -17 -15 -20 -15 -3 0 -6 7 -6 15 0 9 9 15
21 15 18 0 19 -2 5 -15z m150 0 c-8 -8 -17 -15 -20 -15 -3 0 -6 7 -6 15 0 9 9
15 21 15 18 0 19 -2 5 -15z m164 11 c0 -2 -7 -9 -15 -16 -12 -10 -15 -10 -15
4 0 9 7 16 15 16 8 0 15 -2 15 -4z m-4743 -91 c-15 -32 -34 -32 -34 0 0 19 5
25 22 25 21 0 22 -2 12 -25z m153 15 c0 -5 -4 -10 -9 -10 -5 0 -12 -8 -14 -17
-3 -11 -5 -7 -6 10 -1 18 4 27 14 27 8 0 15 -4 15 -10z m150 0 c0 -5 -4 -10
-9 -10 -5 0 -12 -8 -14 -17 -3 -11 -5 -7 -6 10 -1 18 4 27 14 27 8 0 15 -4 15
-10z m147 -15 c-15 -32 -27 -32 -27 0 0 18 5 25 19 25 17 0 18 -3 8 -25z
m3760 0 c-15 -32 -27 -32 -27 0 0 18 5 25 19 25 17 0 18 -3 8 -25z m150 0
c-15 -32 -27 -32 -27 0 0 18 5 25 19 25 17 0 18 -3 8 -25z m149 9 c-3 -9 -6
-20 -6 -25 0 -5 -4 -9 -10 -9 -5 0 -10 11 -10 25 0 16 6 25 16 25 11 0 14 -5
10 -16z m154 6 c0 -5 -5 -10 -11 -10 -6 0 -9 -7 -5 -15 3 -8 1 -15 -4 -15 -6
0 -10 11 -10 25 0 16 6 25 15 25 8 0 15 -4 15 -10z m-4594 -85 c-8 -8 -17 -15
-20 -15 -3 0 -6 7 -6 15 0 9 9 15 21 15 18 0 19 -2 5 -15z m154 0 c-7 -8 -16
-15 -21 -15 -5 0 -9 7 -9 15 0 9 9 15 21 15 18 0 19 -2 9 -15z m160 11 c0 -2
-7 -9 -15 -16 -12 -10 -15 -10 -15 4 0 9 7 16 15 16 8 0 15 -2 15 -4z m144 -3
c-5 -5 -12 -12 -16 -18 -4 -6 -8 -2 -8 8 0 9 7 17 17 17 9 0 12 -3 7 -7z
m3760 0 c-5 -5 -12 -12 -16 -18 -4 -6 -8 -2 -8 8 0 9 7 17 17 17 9 0 12 -3 7
-7z m146 -8 c-7 -8 -16 -15 -21 -15 -5 0 -9 7 -9 15 0 9 9 15 21 15 18 0 19
-2 9 -15z m150 0 c-7 -8 -16 -15 -21 -15 -5 0 -9 7 -9 15 0 9 9 15 21 15 18 0
19 -2 9 -15z m160 11 c0 -2 -7 -9 -15 -16 -12 -10 -15 -10 -15 4 0 9 7 16 15
16 8 0 15 -2 15 -4z m-3528 -23 c23 -20 24 -80 1 -105 -19 -21 -82 -25 -101
-6 -16 16 -16 100 0 116 17 17 78 15 100 -5z m66 -46 c3 -56 4 -57 32 -57 28
0 29 1 32 58 2 43 7 57 18 57 11 0 16 -14 18 -53 4 -66 -10 -82 -71 -82 -52 0
-57 7 -57 87 0 76 24 67 28 -10z m226 54 c3 -5 -3 -11 -14 -14 -17 -4 -20 -14
-20 -62 0 -48 -3 -56 -17 -53 -14 2 -19 15 -21 61 -3 49 -6 57 -23 57 -11 0
-17 5 -14 10 8 12 102 13 109 1z m231 -1 c3 -5 -3 -10 -14 -10 -17 0 -20 -8
-23 -57 -2 -46 -7 -59 -20 -61 -15 -3 -18 5 -18 53 0 48 -3 58 -20 62 -11 3
-17 9 -14 14 7 12 101 11 109 -1z m53 -23 c3 -22 8 -27 33 -27 26 0 29 3 29
31 0 24 4 30 18 27 14 -3 17 -14 17 -68 0 -54 -3 -65 -17 -68 -14 -3 -18 3
-18 27 0 28 -3 31 -30 31 -27 0 -30 -3 -30 -31 0 -24 -4 -30 -17 -27 -14 2
-19 15 -21 57 -2 29 -1 60 2 68 9 23 31 10 34 -20z m242 24 c0 -6 -19 -11 -42
-13 -31 -2 -44 -8 -46 -20 -3 -15 4 -18 32 -18 20 0 36 -4 36 -10 0 -5 -16
-10 -35 -10 -28 0 -35 -4 -35 -20 0 -17 7 -20 45 -20 25 0 45 -4 45 -10 0 -6
-28 -10 -65 -10 l-65 0 0 63 c0 35 3 67 7 70 10 11 123 8 123 -2z m136 -5 c16
-16 19 -46 5 -46 -17 0 -21 -33 -6 -50 8 -9 15 -20 15 -23 0 -16 -24 -5 -50
23 -35 38 -40 37 -40 -1 0 -24 -4 -30 -17 -27 -14 2 -19 15 -21 57 -2 29 -1
60 2 67 7 19 93 19 112 0z m169 5 c3 -6 -16 -11 -42 -13 -36 -2 -49 -7 -51
-20 -3 -15 4 -18 38 -18 25 0 39 -4 35 -10 -3 -5 -22 -10 -41 -10 -28 0 -35
-4 -32 -17 2 -13 16 -19 53 -24 66 -7 37 -21 -36 -17 l-54 3 -3 54 c-2 29 -1
60 2 67 6 16 121 20 131 5z m93 -44 c3 -42 1 -47 -17 -47 -18 0 -21 6 -21 43
0 24 3 47 7 51 16 15 28 -3 31 -47z m130 -10 c3 -56 4 -57 32 -57 28 0 29 1
32 57 4 78 28 85 28 8 0 -67 -14 -85 -65 -85 -20 0 -43 6 -51 14 -14 15 -20
107 -7 120 17 16 28 -5 31 -57z m210 51 c7 -7 12 -16 12 -20 0 -13 -28 -9 -32
4 -6 16 -38 2 -38 -17 0 -10 10 -15 33 -15 35 0 57 -15 57 -38 0 -42 -82 -58
-115 -22 -18 19 -17 20 3 20 12 0 22 -5 22 -11 0 -18 55 -6 58 14 3 14 -4 17
-33 17 -33 0 -65 18 -65 36 0 34 72 58 98 32z m187 3 c3 -6 -16 -11 -42 -13
-36 -2 -49 -7 -51 -20 -3 -15 4 -18 38 -18 25 0 39 -4 35 -10 -3 -5 -22 -10
-41 -10 -28 0 -35 -4 -32 -17 2 -13 16 -19 53 -24 66 -7 37 -21 -36 -17 l-54
3 -3 54 c-2 29 -1 60 2 67 6 16 121 20 131 5z m219 0 c3 -5 -3 -11 -14 -14
-17 -4 -20 -14 -20 -61 0 -43 -3 -56 -15 -56 -12 0 -15 13 -15 56 0 47 -3 57
-20 61 -11 3 -20 9 -20 14 0 12 97 12 104 0z m64 -24 c3 -21 9 -27 27 -27 18
0 24 6 27 27 2 17 10 29 21 31 15 3 17 -5 17 -68 0 -63 -2 -71 -17 -68 -11 2
-19 14 -21 31 -3 21 -9 27 -28 27 -20 0 -24 -5 -24 -30 0 -23 -4 -30 -20 -30
-18 0 -20 7 -20 63 0 35 3 67 7 71 13 12 28 -1 31 -27z m202 24 c0 -6 -4 -13
-10 -16 -5 -3 -10 -24 -10 -45 0 -21 5 -42 10 -45 21 -13 9 -25 -25 -25 -34 0
-46 12 -25 25 13 8 13 82 0 90 -6 4 -8 11 -5 16 8 12 65 12 65 0z m120 -6 c18
-21 4 -32 -21 -17 -22 14 -39 8 -39 -14 0 -9 11 -14 36 -14 32 0 64 -18 64
-36 0 -4 -7 -16 -17 -26 -22 -25 -84 -24 -108 2 -16 18 -17 20 -1 20 9 0 25
-5 35 -12 22 -14 51 -4 51 17 0 11 -10 15 -36 15 -32 0 -64 18 -64 36 0 4 7
16 17 26 20 22 66 24 83 3z m-3567 -75 c-15 -31 -33 -32 -33 -1 0 22 9 31 31
31 16 0 16 -2 2 -30z m157 20 c0 -5 -4 -10 -9 -10 -5 0 -12 -8 -14 -17 -3 -11
-5 -7 -6 10 -1 18 4 27 14 27 8 0 15 -4 15 -10z m150 0 c0 -5 -4 -10 -9 -10
-5 0 -12 -8 -14 -17 -3 -11 -5 -7 -6 10 -1 18 4 27 14 27 8 0 15 -4 15 -10z
m146 -6 c-3 -9 -6 -20 -6 -25 0 -5 -4 -9 -10 -9 -5 0 -10 11 -10 25 0 16 6 25
16 25 11 0 14 -5 10 -16z m3760 0 c-3 -9 -6 -20 -6 -25 0 -5 -4 -9 -10 -9 -5
0 -10 11 -10 25 0 16 6 25 16 25 11 0 14 -5 10 -16z m151 -9 c-15 -32 -27 -32
-27 0 0 18 5 25 19 25 17 0 18 -3 8 -25z m149 9 c-3 -9 -6 -20 -6 -25 0 -5 -4
-9 -10 -9 -5 0 -10 11 -10 25 0 16 6 25 16 25 11 0 14 -5 10 -16z m154 6 c0
-5 -5 -10 -11 -10 -6 0 -9 -7 -5 -15 3 -8 1 -15 -4 -15 -6 0 -10 11 -10 25 0
16 6 25 15 25 8 0 15 -4 15 -10z m-2230 -60 c0 -5 -9 -10 -20 -10 -11 0 -20 5
-20 10 0 6 9 10 20 10 11 0 20 -4 20 -10z m-2360 -25 c-7 -8 -16 -15 -21 -15
-5 0 -9 7 -9 15 0 9 9 15 21 15 18 0 19 -2 9 -15z m150 0 c-7 -8 -16 -15 -21
-15 -5 0 -9 7 -9 15 0 9 9 15 21 15 18 0 19 -2 9 -15z m160 6 c0 -5 -7 -11
-15 -15 -9 -3 -15 0 -15 9 0 8 7 15 15 15 8 0 15 -4 15 -9z m150 5 c0 -2 -7
-9 -15 -16 -12 -10 -15 -10 -15 4 0 9 7 16 15 16 8 0 15 -2 15 -4z m3760 0 c0
-2 -7 -9 -15 -16 -12 -10 -15 -10 -15 4 0 9 7 16 15 16 8 0 15 -2 15 -4z m140
-11 c-7 -8 -16 -15 -21 -15 -5 0 -9 7 -9 15 0 9 9 15 21 15 18 0 19 -2 9 -15z
m160 6 c0 -11 -26 -22 -34 -14 -12 12 -5 23 14 23 11 0 20 -4 20 -9z m150 0
c0 -5 -7 -11 -15 -15 -9 -3 -15 0 -15 9 0 8 7 15 15 15 8 0 15 -4 15 -9z
m-4745 -83 c-10 -34 -23 -44 -31 -25 -9 23 2 47 21 47 12 0 15 -6 10 -22z
m155 12 c0 -5 -4 -10 -9 -10 -5 0 -12 -10 -14 -22 -3 -17 -5 -14 -6 10 -1 22
3 32 14 32 8 0 15 -4 15 -10z m150 0 c0 -5 -4 -10 -9 -10 -5 0 -12 -10 -14
-22 -3 -17 -5 -14 -6 10 -1 22 3 32 14 32 8 0 15 -4 15 -10z m145 -12 c-12
-39 -25 -44 -25 -10 0 22 5 32 16 32 11 0 14 -6 9 -22z m3760 0 c-12 -39 -25
-44 -25 -10 0 22 5 32 16 32 11 0 14 -6 9 -22z m160 12 c3 -5 1 -10 -4 -10 -6
0 -11 -6 -11 -14 0 -8 -4 -18 -10 -21 -6 -4 -10 7 -10 24 0 31 21 43 35 21z
m140 -12 c-12 -39 -25 -44 -25 -10 0 22 5 32 16 32 11 0 14 -6 9 -22z m155 14
c0 -5 -7 -17 -15 -28 -14 -18 -14 -18 -15 9 0 17 5 27 15 27 8 0 15 -4 15 -8z
m-4594 -87 c-8 -8 -17 -15 -20 -15 -3 0 -6 7 -6 15 0 9 9 15 21 15 18 0 19 -2
5 -15z m150 0 c-8 -8 -17 -15 -20 -15 -3 0 -6 7 -6 15 0 9 9 15 21 15 18 0 19
-2 5 -15z m158 8 c-5 -5 -12 -12 -16 -18 -4 -6 -8 -2 -8 8 0 9 7 17 17 17 9 0
12 -3 7 -7z m150 0 c-5 -5 -12 -12 -16 -18 -4 -6 -8 -2 -8 8 0 9 7 17 17 17 9
0 12 -3 7 -7z m3760 0 c-5 -5 -12 -12 -16 -18 -4 -6 -8 -2 -8 8 0 9 7 17 17
17 9 0 12 -3 7 -7z m142 -8 c-8 -8 -17 -15 -20 -15 -3 0 -6 7 -6 15 0 9 9 15
21 15 18 0 19 -2 5 -15z m150 0 c-8 -8 -17 -15 -20 -15 -3 0 -6 7 -6 15 0 9 9
15 21 15 18 0 19 -2 5 -15z m158 8 c-5 -5 -12 -12 -16 -18 -4 -6 -8 -2 -8 8 0
9 7 17 17 17 9 0 12 -3 7 -7z m-2291 -39 c22 -30 35 -94 18 -94 -6 0 -11 -5
-11 -12 0 -20 32 -48 56 -48 13 0 26 -4 29 -10 3 -5 1 -10 -4 -10 -6 0 -11 -9
-11 -20 0 -11 -7 -20 -15 -20 -8 0 -15 5 -15 10 0 6 -9 10 -20 10 -13 0 -20
-7 -20 -20 0 -11 -4 -20 -10 -20 -5 0 -10 5 -10 10 0 6 -28 10 -65 10 -37 0
-65 -4 -65 -10 0 -5 -4 -10 -10 -10 -5 0 -10 9 -10 20 0 13 -7 20 -20 20 -11
0 -20 -4 -20 -10 0 -21 -31 -9 -40 16 -13 34 -13 34 15 34 14 0 34 9 45 20 22
22 26 40 10 40 -20 0 -11 73 12 97 18 19 31 23 82 23 53 -1 63 -4 79 -26z
m927 -14 c0 -5 -5 -10 -11 -10 -5 0 -7 5 -4 10 3 6 8 10 11 10 2 0 4 -4 4 -10z
m-3365 -20 c3 -5 1 -10 -4 -10 -6 0 -11 -7 -11 -15 0 -8 -7 -15 -15 -15 -15 0
-21 31 -8 43 10 10 31 8 38 -3z m145 0 c0 -5 -4 -10 -9 -10 -5 0 -12 -8 -14
-17 -3 -11 -5 -7 -6 10 -1 18 4 27 14 27 8 0 15 -4 15 -10z m150 3 c0 -5 -7
-17 -15 -27 -14 -19 -15 -19 -15 7 0 17 5 27 15 27 8 0 15 -3 15 -7z m146 -9
c-3 -9 -6 -20 -6 -25 0 -5 -4 -9 -10 -9 -5 0 -10 11 -10 25 0 16 6 25 16 25
11 0 14 -5 10 -16z m3760 0 c-3 -9 -6 -20 -6 -25 0 -5 -4 -9 -10 -9 -5 0 -10
11 -10 25 0 16 6 25 16 25 11 0 14 -5 10 -16z m159 6 c3 -5 1 -10 -4 -10 -6 0
-11 -7 -11 -15 0 -8 -4 -15 -10 -15 -5 0 -10 11 -10 25 0 25 23 35 35 15z
m141 -6 c-3 -9 -6 -20 -6 -25 0 -5 -4 -9 -10 -9 -5 0 -10 11 -10 25 0 16 6 25
16 25 11 0 14 -5 10 -16z m154 7 c0 -6 -5 -13 -10 -16 -6 -4 -8 -11 -5 -16 4
-5 1 -9 -4 -9 -12 0 -15 33 -4 43 9 10 23 8 23 -2z m-3300 -21 c0 -5 -4 -10
-10 -10 -5 0 -10 5 -10 10 0 6 5 10 10 10 6 0 10 -4 10 -10z m1820 0 c0 -5 -4
-10 -10 -10 -5 0 -10 5 -10 10 0 6 5 10 10 10 6 0 10 -4 10 -10z m-1670 -63
c0 -8 9 -22 19 -31 19 -17 20 -51 3 -68 -12 -12 -97 -21 -136 -14 -39 7 -45
19 -21 42 8 8 21 25 30 36 8 12 18 19 21 15 4 -4 1 -13 -6 -22 -7 -8 -9 -15
-6 -15 13 0 36 28 36 44 0 9 5 16 10 16 6 0 10 -9 10 -20 0 -11 5 -20 10 -20
13 0 13 47 0 55 -6 4 -8 11 -5 16 8 12 35 -15 35 -34z m1820 1 c0 -8 9 -20 20
-28 12 -8 20 -26 20 -42 0 -23 -6 -29 -37 -37 -59 -17 -153 -10 -153 11 0 17
53 63 58 50 2 -7 8 -12 14 -12 6 0 5 6 -2 15 -7 9 -10 19 -6 22 4 4 11 2 15
-6 6 -9 10 -6 16 11 l8 23 4 -22 c2 -13 9 -23 14 -23 12 0 12 47 -1 55 -6 4
-8 11 -5 16 8 11 35 -15 35 -33z m-1750 22 c0 -5 -2 -10 -4 -10 -3 0 -8 5 -11
10 -3 6 -1 10 4 10 6 0 11 -4 11 -10z m1820 0 c0 -5 -2 -10 -4 -10 -3 0 -8 5
-11 10 -3 6 -1 10 4 10 6 0 11 -4 11 -10z m-3334 -25 c-8 -8 -17 -15 -20 -15
-3 0 -6 7 -6 15 0 9 9 15 21 15 18 0 19 -2 5 -15z m154 0 c-7 -8 -16 -15 -21
-15 -5 0 -9 7 -9 15 0 9 9 15 21 15 18 0 19 -2 9 -15z m160 11 c0 -2 -7 -9
-15 -16 -12 -10 -15 -10 -15 4 0 9 7 16 15 16 8 0 15 -2 15 -4z m144 -3 c-5
-5 -12 -12 -16 -18 -4 -6 -8 -2 -8 8 0 9 7 17 17 17 9 0 12 -3 7 -7z m3760 0
c-5 -5 -12 -12 -16 -18 -4 -6 -8 -2 -8 8 0 9 7 17 17 17 9 0 12 -3 7 -7z m142
-8 c-8 -8 -17 -15 -20 -15 -3 0 -6 7 -6 15 0 9 9 15 21 15 18 0 19 -2 5 -15z
m154 0 c-7 -8 -16 -15 -21 -15 -5 0 -9 7 -9 15 0 9 9 15 21 15 18 0 19 -2 9
-15z m160 11 c0 -2 -7 -9 -15 -16 -12 -10 -15 -10 -15 4 0 9 7 16 15 16 8 0
15 -2 15 -4z m-4738 -84 c-7 -2 -12 -10 -12 -18 0 -8 -7 -14 -15 -14 -21 0
-19 38 3 43 20 4 42 -5 24 -11z m142 0 c-6 -4 -14 -14 -17 -22 -4 -10 -6 -8
-6 7 -1 12 5 23 12 26 16 6 24 -2 11 -11z m156 9 c0 -3 -7 -15 -15 -25 -14
-19 -15 -19 -15 5 0 16 6 26 15 26 8 0 15 -3 15 -6z m152 -9 c-7 -2 -12 -10
-12 -18 0 -8 -4 -14 -10 -14 -5 0 -10 9 -10 19 0 20 18 32 35 23 5 -3 4 -7 -3
-10z m3764 5 c4 -4 2 -7 -4 -7 -7 0 -12 -7 -12 -15 0 -8 -4 -15 -10 -15 -5 0
-10 11 -10 24 0 23 19 30 36 13z m146 -5 c-7 -2 -12 -10 -12 -18 0 -8 -4 -14
-10 -14 -5 0 -10 9 -10 19 0 20 18 32 35 23 5 -3 4 -7 -3 -10z m141 -12 c-3
-11 -9 -20 -14 -20 -5 0 -9 9 -9 20 0 11 6 20 14 20 9 0 12 -7 9 -20z m146 3
c-7 -10 -15 -20 -16 -22 -2 -2 -3 5 -3 17 0 14 6 22 16 22 14 0 15 -3 3 -17z
m-2226 -42 c16 -6 25 -15 22 -21 -8 -13 -55 -13 -55 0 0 6 -11 10 -24 10 -14
0 -28 -4 -31 -10 -9 -14 -55 -12 -55 3 0 30 86 41 143 18z m-2353 -26 c-7 -8
-16 -15 -21 -15 -5 0 -9 7 -9 15 0 9 9 15 21 15 18 0 19 -2 9 -15z m150 0 c-7
-8 -16 -15 -21 -15 -5 0 -9 7 -9 15 0 9 9 15 21 15 18 0 19 -2 9 -15z m160 11
c0 -2 -7 -9 -15 -16 -12 -10 -15 -10 -15 4 0 9 7 16 15 16 8 0 15 -2 15 -4z
m150 0 c0 -2 -7 -9 -15 -16 -12 -10 -15 -10 -15 4 0 9 7 16 15 16 8 0 15 -2
15 -4z m3760 0 c0 -2 -7 -9 -15 -16 -12 -10 -15 -10 -15 4 0 9 7 16 15 16 8 0
15 -2 15 -4z m140 -11 c-7 -8 -16 -15 -21 -15 -5 0 -9 7 -9 15 0 9 9 15 21 15
18 0 19 -2 9 -15z m150 0 c-7 -8 -16 -15 -21 -15 -5 0 -9 7 -9 15 0 9 9 15 21
15 18 0 19 -2 9 -15z m160 11 c0 -2 -7 -9 -15 -16 -12 -10 -15 -10 -15 4 0 9
7 16 15 16 8 0 15 -2 15 -4z m-3151 -50 c14 -15 14 -16 -1 -16 -9 0 -20 5 -23
10 -4 6 -53 10 -116 10 -66 0 -109 -4 -109 -10 0 -5 -9 -10 -21 -10 -18 0 -19
2 -6 14 27 27 249 28 276 2z m1822 -2 c9 -11 8 -14 -4 -14 -9 0 -19 5 -22 10
-4 6 -53 10 -116 10 -66 0 -109 -4 -109 -10 0 -5 -7 -10 -15 -10 -8 0 -12 6
-9 15 10 26 253 26 275 -1z m-3416 -36 c-10 -34 -23 -44 -31 -25 -9 23 2 47
21 47 12 0 15 -6 10 -22z m155 12 c0 -5 -4 -10 -9 -10 -5 0 -12 -8 -14 -17 -3
-11 -5 -7 -6 10 -1 18 4 27 14 27 8 0 15 -4 15 -10z m150 0 c0 -5 -4 -10 -9
-10 -5 0 -12 -10 -14 -22 -3 -17 -5 -14 -6 10 -1 22 3 32 14 32 8 0 15 -4 15
-10z m145 -12 c-12 -39 -25 -44 -25 -10 0 22 5 32 16 32 11 0 14 -6 9 -22z
m3760 0 c-12 -39 -25 -44 -25 -10 0 22 5 32 16 32 11 0 14 -6 9 -22z m165 12
c0 -5 -4 -10 -10 -10 -5 0 -10 -6 -10 -14 0 -8 -4 -18 -10 -21 -6 -4 -10 7
-10 24 0 24 4 31 20 31 11 0 20 -4 20 -10z m135 -12 c-12 -39 -25 -44 -25 -10
0 22 5 32 16 32 11 0 14 -6 9 -22z m155 12 c0 -5 -5 -10 -11 -10 -5 0 -8 -4
-4 -9 3 -5 1 -12 -5 -16 -6 -4 -10 5 -10 19 0 16 6 26 15 26 8 0 15 -4 15 -10z
m-4580 -76 c0 -11 -28 -33 -34 -27 -13 13 -5 33 14 33 11 0 20 -3 20 -6z m150
0 c0 -11 -28 -33 -34 -27 -13 13 -5 33 14 33 11 0 20 -3 20 -6z m150 0 c0 -3
-7 -12 -15 -20 -13 -14 -15 -13 -15 5 0 12 6 21 15 21 8 0 15 -3 15 -6z m150
0 c0 -3 -7 -12 -15 -20 -13 -14 -15 -13 -15 5 0 12 6 21 15 21 8 0 15 -3 15
-6z m3749 -11 c-7 -10 -15 -20 -16 -22 -2 -2 -3 5 -3 17 0 14 6 22 16 22 14 0
15 -3 3 -17z m161 11 c0 -11 -28 -33 -34 -27 -13 13 -5 33 14 33 11 0 20 -3
20 -6z m150 0 c0 -11 -28 -33 -34 -27 -13 13 -5 33 14 33 11 0 20 -3 20 -6z
m150 0 c0 -3 -7 -12 -15 -20 -13 -14 -15 -13 -15 5 0 12 6 21 15 21 8 0 15 -3
15 -6z m-4735 -74 c3 -5 2 -10 -3 -10 -5 0 -12 -9 -15 -21 -6 -24 -27 -17 -27
10 0 29 31 44 45 21z m145 0 c0 -5 -4 -10 -9 -10 -5 0 -12 -10 -14 -22 -3 -17
-5 -14 -6 10 -1 22 3 32 14 32 8 0 15 -4 15 -10z m150 0 c0 -5 -4 -10 -9 -10
-5 0 -12 -10 -14 -22 -3 -17 -5 -14 -6 10 -1 22 3 32 14 32 8 0 15 -4 15 -10z
m145 -12 c-12 -39 -25 -44 -25 -10 0 22 5 32 16 32 11 0 14 -6 9 -22z m3760 0
c-12 -39 -25 -44 -25 -10 0 22 5 32 16 32 11 0 14 -6 9 -22z m160 12 c3 -5 1
-10 -4 -10 -6 0 -11 -9 -11 -20 0 -11 -4 -20 -10 -20 -5 0 -10 14 -10 30 0 30
21 42 35 20z m141 -6 c-3 -9 -6 -22 -6 -30 0 -8 -4 -14 -10 -14 -5 0 -10 14
-10 30 0 21 5 30 16 30 11 0 14 -5 10 -16z m154 12 c0 -2 -7 -17 -15 -32 l-15
-29 0 33 c0 22 5 32 15 32 8 0 15 -2 15 -4z m-4580 -85 c0 -5 -7 -12 -16 -15
-22 -9 -24 -8 -24 9 0 8 9 15 20 15 11 0 20 -4 20 -9z m150 0 c0 -5 -7 -12
-16 -15 -22 -9 -24 -8 -24 9 0 8 9 15 20 15 11 0 20 -4 20 -9z m150 0 c0 -5
-7 -11 -15 -15 -9 -3 -15 0 -15 9 0 8 7 15 15 15 8 0 15 -4 15 -9z m150 0 c0
-5 -7 -11 -15 -15 -9 -3 -15 0 -15 9 0 8 7 15 15 15 8 0 15 -4 15 -9z m3760 0
c0 -5 -7 -11 -15 -15 -9 -3 -15 0 -15 9 0 8 7 15 15 15 8 0 15 -4 15 -9z m150
0 c0 -5 -7 -12 -16 -15 -22 -9 -24 -8 -24 9 0 8 9 15 20 15 11 0 20 -4 20 -9z
m150 0 c0 -10 -30 -24 -37 -17 -3 3 -2 9 2 15 8 13 35 15 35 2z m150 0 c0 -5
-7 -11 -15 -15 -9 -3 -15 0 -15 9 0 8 7 15 15 15 8 0 15 -4 15 -9z m-4735 -71
c3 -5 1 -10 -4 -10 -6 0 -11 -9 -11 -20 0 -23 -18 -27 -26 -5 -13 32 24 63 41
35z m145 0 c0 -5 -4 -10 -9 -10 -5 0 -12 -10 -14 -22 -3 -17 -5 -14 -6 10 -1
22 3 32 14 32 8 0 15 -4 15 -10z m150 6 c0 -2 -7 -17 -15 -32 l-15 -29 0 33
c0 22 5 32 15 32 8 0 15 -2 15 -4z m155 -6 c3 -5 1 -10 -4 -10 -6 0 -11 -6
-11 -14 0 -8 -4 -18 -10 -21 -6 -4 -10 7 -10 24 0 31 21 43 35 21z m2085 4 c0
-10 -28 -34 -39 -34 -14 0 -14 8 2 25 12 14 37 20 37 9z m1675 -4 c3 -5 1 -10
-4 -10 -6 0 -11 -6 -11 -14 0 -8 -4 -18 -10 -21 -6 -4 -10 7 -10 24 0 31 21
43 35 21z m150 0 c3 -5 1 -10 -4 -10 -6 0 -11 -9 -11 -20 0 -11 -4 -20 -10
-20 -5 0 -10 14 -10 30 0 30 21 42 35 20z m141 -6 c-3 -9 -6 -22 -6 -30 0 -8
-4 -14 -10 -14 -11 0 -14 43 -3 53 12 13 25 7 19 -9z m154 7 c0 -6 -5 -13 -10
-16 -6 -4 -8 -10 -5 -15 3 -5 1 -11 -5 -15 -11 -7 -14 37 -3 48 9 10 23 8 23
-2z m-2485 -36 c31 -30 31 -35 2 -35 -20 0 -67 39 -67 55 0 15 44 2 65 -20z
m75 3 c10 -13 22 -19 27 -14 4 5 2 11 -4 13 -20 7 -15 23 7 23 19 0 70 -40 70
-55 0 -11 -49 -4 -53 8 -4 10 -7 10 -18 0 -7 -7 -20 -13 -28 -13 -16 0 -61 38
-61 52 0 17 43 7 60 -14z m149 1 c12 -12 25 -18 29 -14 4 4 1 10 -5 12 -21 7
-15 23 8 23 23 0 82 -44 72 -54 -11 -11 -51 -6 -56 7 -4 10 -7 10 -18 0 -20
-20 -43 -15 -67 12 -12 14 -22 27 -22 30 0 13 39 3 59 -16z m-2329 -54 c-7 -8
-16 -15 -21 -15 -5 0 -9 7 -9 15 0 9 9 15 21 15 18 0 19 -2 9 -15z m150 0 c-7
-8 -16 -15 -21 -15 -5 0 -9 7 -9 15 0 9 9 15 21 15 18 0 19 -2 9 -15z m160 11
c0 -2 -7 -9 -15 -16 -12 -10 -15 -10 -15 4 0 9 7 16 15 16 8 0 15 -2 15 -4z
m144 -3 c-5 -5 -12 -12 -16 -18 -4 -6 -8 -2 -8 8 0 9 7 17 17 17 9 0 12 -3 7
-7z m3760 0 c-5 -5 -12 -12 -16 -18 -4 -6 -8 -2 -8 8 0 9 7 17 17 17 9 0 12
-3 7 -7z m146 -8 c-7 -8 -16 -15 -21 -15 -5 0 -9 7 -9 15 0 9 9 15 21 15 18 0
19 -2 9 -15z m150 0 c-7 -8 -16 -15 -21 -15 -5 0 -9 7 -9 15 0 9 9 15 21 15
18 0 19 -2 9 -15z m160 11 c0 -2 -7 -9 -15 -16 -12 -10 -15 -10 -15 4 0 9 7
16 15 16 8 0 15 -2 15 -4z m-2152 -23 c-10 -2 -26 -2 -35 0 -10 3 -2 5 17 5
19 0 27 -2 18 -5z m-2584 -61 c-6 -4 -13 -15 -17 -25 -8 -22 -27 -13 -27 14 0
14 7 19 28 19 15 0 22 -4 16 -8z m135 -9 c-7 -10 -15 -20 -16 -22 -2 -2 -3 5
-3 17 0 14 6 22 16 22 14 0 15 -3 3 -17z m154 5 c-6 -7 -13 -20 -16 -28 -3 -9
-6 -3 -6 13 -1 19 4 27 15 27 12 0 14 -4 7 -12z m160 5 c-7 -2 -13 -11 -13
-18 0 -8 -4 -17 -10 -20 -6 -4 -10 5 -10 19 0 21 5 26 23 25 12 0 16 -3 10 -6z
m3760 0 c-7 -2 -13 -11 -13 -18 0 -8 -4 -17 -10 -20 -6 -4 -10 5 -10 19 0 21
5 26 23 25 12 0 16 -3 10 -6z m150 0 c-7 -2 -13 -11 -13 -19 0 -8 -4 -14 -10
-14 -5 0 -10 9 -10 20 0 14 6 20 23 19 12 0 16 -3 10 -6z m140 -13 c-3 -11 -9
-20 -14 -20 -5 0 -9 9 -9 20 0 11 6 20 14 20 9 0 12 -7 9 -20z m148 7 c-6 -8
-8 -17 -4 -20 3 -4 1 -7 -5 -7 -7 0 -12 9 -12 20 0 12 7 20 16 20 13 0 14 -3
5 -13z m-4583 -76 c-13 -21 -28 -19 -28 5 0 8 9 14 20 14 17 0 19 -3 8 -19z
m162 13 c0 -11 -28 -33 -34 -27 -13 13 -5 33 14 33 11 0 20 -3 20 -6z m150 0
c0 -3 -7 -12 -15 -20 -13 -14 -15 -13 -15 5 0 12 6 21 15 21 8 0 15 -3 15 -6z
m150 2 c0 -2 -7 -9 -15 -16 -12 -10 -15 -10 -15 4 0 9 7 16 15 16 8 0 15 -2
15 -4z m3760 0 c0 -2 -7 -9 -15 -16 -12 -10 -15 -10 -15 4 0 9 7 16 15 16 8 0
15 -2 15 -4z m150 -5 c0 -5 -7 -12 -16 -15 -22 -9 -24 -8 -24 9 0 8 9 15 20
15 11 0 20 -4 20 -9z m150 3 c0 -11 -28 -33 -34 -27 -13 13 -5 33 14 33 11 0
20 -3 20 -6z m150 0 c0 -3 -7 -12 -15 -20 -13 -14 -15 -13 -15 5 0 12 6 21 15
21 8 0 15 -3 15 -6z m-2480 -74 c0 -11 6 -20 13 -20 8 0 7 -4 -3 -11 -11 -8
-12 -12 -2 -16 6 -2 12 -14 12 -25 0 -17 2 -19 16 -7 13 10 17 10 24 0 5 -9
10 -10 14 -2 4 6 2 11 -3 11 -6 0 -11 5 -11 10 0 6 19 10 43 10 31 0 46 -5 57
-20 18 -25 30 -26 30 -1 0 11 6 22 13 25 8 4 9 8 1 11 -18 9 7 55 29 55 17 0
18 -6 12 -57 -4 -32 -11 -62 -16 -67 -5 -6 -9 -18 -9 -27 0 -9 -7 -30 -15 -45
-8 -16 -15 -37 -15 -46 0 -10 -4 -18 -10 -18 -5 0 -10 7 -10 16 0 26 -27 44
-65 44 -38 0 -65 -18 -65 -44 0 -9 -4 -16 -10 -16 -5 0 -10 9 -10 20 0 11 -4
20 -9 20 -5 0 -12 19 -16 43 -4 23 -11 47 -15 52 -4 6 -11 36 -14 68 -7 53 -6
57 13 57 14 0 21 -6 21 -20z m-2256 -8 c-6 -4 -13 -15 -17 -25 -8 -22 -27 -13
-27 14 0 14 7 19 28 19 15 0 22 -4 16 -8z m139 -4 c-6 -7 -13 -20 -16 -28 -3
-9 -6 -3 -6 13 -1 19 4 27 15 27 12 0 14 -4 7 -12z m150 0 c-6 -7 -13 -20 -16
-28 -3 -9 -6 -3 -6 13 -1 19 4 27 15 27 12 0 14 -4 7 -12z m160 5 c-7 -2 -13
-11 -13 -18 0 -8 -4 -17 -10 -20 -6 -4 -10 5 -10 19 0 21 5 26 23 25 12 0 16
-3 10 -6z m3760 0 c-7 -2 -13 -11 -13 -18 0 -8 -4 -17 -10 -20 -6 -4 -10 5
-10 19 0 21 5 26 23 25 12 0 16 -3 10 -6z m150 0 c-7 -2 -13 -11 -13 -18 0 -8
-4 -17 -10 -20 -6 -4 -10 5 -10 19 0 21 5 26 23 25 12 0 16 -3 10 -6z m139
-18 c-2 -14 -8 -25 -13 -25 -5 0 -9 11 -9 25 0 14 6 25 14 25 9 0 12 -8 8 -25z
m147 8 c-7 -10 -15 -20 -16 -22 -2 -2 -3 5 -3 17 0 14 6 22 16 22 14 0 15 -3
3 -17z m-4569 -59 c0 -11 -28 -33 -34 -27 -13 13 -5 33 14 33 11 0 20 -3 20
-6z m150 0 c0 -11 -28 -33 -34 -27 -13 13 -5 33 14 33 11 0 20 -3 20 -6z m150
0 c0 -3 -7 -12 -15 -20 -13 -14 -15 -13 -15 5 0 12 6 21 15 21 8 0 15 -3 15
-6z m150 0 c0 -3 -7 -12 -15 -20 -13 -14 -15 -13 -15 5 0 12 6 21 15 21 8 0
15 -3 15 -6z m3760 0 c0 -3 -7 -12 -15 -20 -13 -14 -15 -13 -15 5 0 12 6 21
15 21 8 0 15 -3 15 -6z m150 0 c0 -11 -28 -33 -34 -27 -13 13 -5 33 14 33 11
0 20 -3 20 -6z m150 0 c0 -3 -6 -12 -14 -20 -16 -15 -32 -2 -21 16 7 11 35 14
35 4z m150 0 c0 -3 -7 -12 -15 -20 -13 -14 -15 -13 -15 5 0 12 6 21 15 21 8 0
15 -3 15 -6z m-4736 -82 c-6 -4 -13 -15 -17 -25 -8 -22 -27 -13 -27 14 0 14 7
19 28 19 15 0 22 -4 16 -8z m140 0 c-7 -4 -14 -16 -17 -27 -4 -15 -5 -14 -6 8
-1 20 4 27 17 27 11 0 13 -3 6 -8z m149 -4 c-6 -7 -13 -20 -16 -28 -3 -9 -6
-3 -6 13 -1 19 4 27 15 27 12 0 14 -4 7 -12z m150 -8 c-8 -31 -23 -34 -23 -6
0 16 6 26 14 26 9 0 12 -7 9 -20z m3760 0 c-8 -31 -23 -34 -23 -6 0 16 6 26
14 26 9 0 12 -7 9 -20z m160 13 c-7 -2 -13 -13 -13 -24 0 -10 -4 -19 -10 -19
-5 0 -10 11 -10 25 0 19 5 25 23 24 12 0 16 -3 10 -6z m139 -18 c-2 -14 -8
-25 -13 -25 -5 0 -9 11 -9 25 0 14 6 25 14 25 9 0 12 -8 8 -25z m151 13 c-4
-7 -8 -16 -8 -20 0 -21 -15 -17 -15 5 0 18 5 27 16 27 10 0 12 -4 7 -12z
m-2243 -48 c0 -5 -20 -10 -45 -10 -25 0 -45 5 -45 10 0 6 20 10 45 10 25 0 45
-4 45 -10z m-2330 -16 c0 -7 -27 -34 -34 -34 -3 0 -6 9 -6 20 0 13 7 20 20 20
11 0 20 -3 20 -6z m150 0 c0 -3 -6 -12 -14 -20 -16 -15 -32 -2 -21 16 7 11 35
14 35 4z m150 0 c0 -3 -7 -12 -15 -20 -13 -14 -15 -13 -15 5 0 12 6 21 15 21
8 0 15 -3 15 -6z m150 0 c0 -3 -7 -12 -15 -20 -13 -14 -15 -13 -15 5 0 12 6
21 15 21 8 0 15 -3 15 -6z m3760 0 c0 -3 -7 -12 -15 -20 -13 -14 -15 -13 -15
5 0 12 6 21 15 21 8 0 15 -3 15 -6z m150 0 c0 -7 -27 -34 -34 -34 -3 0 -6 9
-6 20 0 13 7 20 20 20 11 0 20 -3 20 -6z m150 0 c0 -3 -6 -12 -14 -20 -16 -15
-32 -2 -21 16 7 11 35 14 35 4z m150 0 c0 -3 -7 -12 -15 -20 -13 -14 -15 -13
-15 5 0 12 6 21 15 21 8 0 15 -3 15 -6z m-2330 -24 c0 -5 10 -10 23 -11 22 0
22 0 -2 -10 -16 -6 -28 -6 -35 1 -11 11 -49 14 -59 3 -9 -8 -57 -11 -57 -3 0
3 10 10 23 16 28 15 107 17 107 4z m-2407 -57 c-7 -2 -13 -14 -13 -25 0 -27
-25 -17 -26 10 -1 18 4 22 25 21 14 0 20 -3 14 -6z m141 -1 c-7 -4 -14 -16
-17 -27 -4 -15 -5 -14 -6 8 -1 20 4 27 17 27 11 0 13 -3 6 -8z m149 -4 c-6 -7
-13 -20 -16 -28 -3 -9 -6 -3 -6 13 -1 19 4 27 15 27 12 0 14 -4 7 -12z m160 5
c-7 -2 -13 -11 -13 -18 0 -8 -4 -17 -10 -20 -6 -4 -10 5 -10 19 0 21 5 26 23
25 12 0 16 -3 10 -6z m3760 0 c-7 -2 -13 -11 -13 -18 0 -8 -4 -17 -10 -20 -6
-4 -10 5 -10 19 0 21 5 26 23 25 12 0 16 -3 10 -6z m150 0 c-7 -2 -13 -13 -13
-24 0 -10 -4 -19 -10 -19 -5 0 -10 11 -10 25 0 19 5 25 23 24 12 0 16 -3 10
-6z m139 -18 c-2 -14 -8 -25 -13 -25 -5 0 -9 11 -9 25 0 14 6 25 14 25 9 0 12
-8 8 -25z m151 13 c-6 -7 -13 -20 -16 -28 -3 -9 -6 -3 -6 13 -1 19 4 27 15 27
12 0 14 -4 7 -12z m-4573 -67 c0 -10 -30 -24 -37 -17 -3 3 -2 9 2 15 8 13 35
15 35 2z m150 3 c0 -3 -6 -12 -14 -20 -16 -15 -32 -2 -21 16 7 11 35 14 35 4z
m150 0 c0 -3 -7 -12 -15 -20 -13 -14 -15 -13 -15 5 0 12 6 21 15 21 8 0 15 -3
15 -6z m150 -3 c0 -5 -7 -11 -15 -15 -9 -3 -15 0 -15 9 0 8 7 15 15 15 8 0 15
-4 15 -9z m3760 0 c0 -5 -7 -11 -15 -15 -9 -3 -15 0 -15 9 0 8 7 15 15 15 8 0
15 -4 15 -9z m150 0 c0 -10 -30 -24 -37 -17 -3 3 -2 9 2 15 8 13 35 15 35 2z
m150 3 c0 -3 -6 -12 -14 -20 -16 -15 -32 -2 -21 16 7 11 35 14 35 4z m150 0
c0 -3 -7 -12 -15 -20 -13 -14 -15 -13 -15 5 0 12 6 21 15 21 8 0 15 -3 15 -6z
m-4737 -81 c-7 -2 -13 -14 -13 -25 0 -26 -24 -18 -28 10 -3 18 1 22 25 21 15
0 22 -3 16 -6z m140 -5 c-6 -7 -13 -20 -16 -28 -3 -9 -6 -3 -6 13 -1 19 4 27
15 27 12 0 14 -4 7 -12z m150 0 c-6 -7 -13 -20 -16 -28 -3 -9 -6 -3 -6 13 -1
19 4 27 15 27 12 0 14 -4 7 -12z m160 5 c-7 -2 -13 -13 -13 -24 0 -10 -4 -19
-10 -19 -5 0 -10 11 -10 25 0 19 5 25 23 24 12 0 16 -3 10 -6z m3760 0 c-7 -2
-13 -13 -13 -24 0 -10 -4 -19 -10 -19 -5 0 -10 11 -10 25 0 19 5 25 23 24 12
0 16 -3 10 -6z m150 0 c-7 -2 -13 -13 -13 -24 0 -10 -4 -19 -10 -19 -5 0 -10
11 -10 25 0 19 5 25 23 24 12 0 16 -3 10 -6z m139 -18 c-2 -14 -8 -25 -13 -25
-5 0 -9 11 -9 25 0 14 6 25 14 25 9 0 12 -8 8 -25z m148 10 c-6 -8 -9 -19 -5
-25 3 -5 1 -10 -4 -10 -6 0 -11 11 -11 25 0 16 6 25 16 25 13 0 14 -3 4 -15z
m-4577 -62 c3 -5 -1 -14 -9 -20 -14 -14 -30 0 -19 17 7 12 22 13 28 3z m150 0
c3 -5 -1 -14 -9 -20 -14 -14 -30 0 -19 17 7 12 22 13 28 3z m157 1 c0 -3 -7
-12 -15 -20 -13 -14 -15 -13 -15 5 0 12 6 21 15 21 8 0 15 -3 15 -6z m143 -1
c3 -5 -1 -14 -9 -21 -12 -11 -14 -9 -14 8 0 20 14 27 23 13z m3760 0 c3 -5 -1
-14 -9 -21 -12 -11 -14 -9 -14 8 0 20 14 27 23 13z m144 -18 c-8 -8 -16 -10
-22 -4 -6 7 -5 13 5 19 20 12 32 2 17 -15z m156 18 c3 -5 -1 -14 -9 -20 -14
-14 -30 0 -19 17 7 12 22 13 28 3z m150 0 c3 -5 -1 -14 -9 -21 -12 -11 -14 -9
-14 8 0 20 14 27 23 13z m-4739 -98 c-18 -27 -34 -25 -34 6 0 14 7 19 25 19
25 0 25 -1 9 -25z m149 13 c-6 -7 -13 -20 -16 -28 -3 -9 -6 -3 -6 13 -1 19 4
27 15 27 12 0 14 -4 7 -12z m150 0 c-6 -7 -13 -20 -16 -28 -3 -9 -6 -3 -6 13
-1 19 4 27 15 27 12 0 14 -4 7 -12z m151 -13 c-9 -14 -18 -25 -20 -25 -2 0 -4
11 -4 25 0 18 5 25 20 25 20 0 20 -1 4 -25z m159 18 c-7 -2 -13 -13 -13 -24 0
-10 -4 -19 -10 -19 -5 0 -10 11 -10 25 0 19 5 25 23 24 12 0 16 -3 10 -6z
m144 -18 c-15 -32 -27 -32 -27 0 0 18 5 25 19 25 17 0 18 -3 8 -25z m146 5
c-8 -31 -23 -34 -23 -6 0 16 6 26 14 26 9 0 12 -7 9 -20z m151 -5 c-9 -14 -18
-25 -20 -25 -2 0 -4 11 -4 25 0 18 5 25 20 25 20 0 20 -1 4 -25z m153 0 c-15
-32 -27 -32 -27 0 0 18 5 25 19 25 17 0 18 -3 8 -25z m150 0 c-15 -32 -27 -32
-27 0 0 18 5 25 19 25 17 0 18 -3 8 -25z m150 1 c-13 -27 -27 -25 -27 5 0 12
7 19 19 19 17 0 18 -3 8 -24z m150 0 c-13 -28 -26 -25 -24 4 1 12 8 20 18 20
15 0 15 -4 6 -24z m150 -1 c-15 -32 -27 -32 -27 0 0 18 5 25 19 25 17 0 18 -3
8 -25z m150 0 c-15 -32 -27 -32 -27 0 0 18 5 25 19 25 17 0 18 -3 8 -25z m750
1 c-13 -27 -27 -25 -27 5 0 12 7 19 19 19 17 0 18 -3 8 -24z m156 12 c-6 -7
-13 -20 -16 -28 -3 -9 -6 -3 -6 13 -1 19 4 27 15 27 12 0 14 -4 7 -12z m150 0
c-6 -7 -13 -20 -16 -28 -3 -9 -6 -3 -6 13 -1 19 4 27 15 27 12 0 14 -4 7 -12z
m150 0 c-6 -7 -13 -20 -16 -28 -3 -9 -6 -3 -6 13 -1 19 4 27 15 27 12 0 14 -4
7 -12z m150 0 c-6 -7 -13 -20 -16 -28 -3 -9 -6 -3 -6 13 -1 19 4 27 15 27 12
0 14 -4 7 -12z m150 0 c-6 -7 -13 -20 -16 -28 -3 -9 -6 -3 -6 13 -1 19 4 27
15 27 12 0 14 -4 7 -12z m150 0 c-4 -7 -8 -16 -8 -20 0 -21 -15 -17 -15 5 0
18 5 27 16 27 10 0 12 -4 7 -12z m150 -8 c-8 -31 -23 -34 -23 -6 0 16 6 26 14
26 9 0 12 -7 9 -20z m150 8 c-6 -7 -13 -20 -16 -28 -3 -9 -6 -3 -6 13 -1 19 4
27 15 27 12 0 14 -4 7 -12z m157 2 c0 -5 -4 -10 -9 -10 -5 0 -12 -8 -14 -17
-3 -11 -5 -7 -6 10 -1 18 4 27 14 27 8 0 15 -4 15 -10z m144 -15 c-9 -14 -18
-25 -20 -25 -2 0 -4 11 -4 25 0 18 5 25 20 25 20 0 20 -1 4 -25z m153 0 c-15
-32 -27 -32 -27 0 0 18 5 25 19 25 17 0 18 -3 8 -25z m149 9 c-3 -9 -6 -20 -6
-25 0 -5 -4 -9 -10 -9 -5 0 -10 11 -10 25 0 16 6 25 16 25 11 0 14 -5 10 -16z
m154 6 c0 -5 -5 -10 -11 -10 -5 0 -8 -4 -4 -9 3 -5 1 -12 -5 -16 -6 -4 -10 5
-10 19 0 16 6 26 15 26 8 0 15 -4 15 -10z m-4580 -66 c0 -7 -27 -34 -34 -34
-3 0 -6 9 -6 20 0 13 7 20 20 20 11 0 20 -3 20 -6z m150 0 c0 -3 -6 -12 -14
-20 -16 -15 -32 -2 -21 16 7 11 35 14 35 4z m150 0 c0 -3 -7 -12 -15 -20 -13
-14 -15 -13 -15 5 0 12 6 21 15 21 8 0 15 -3 15 -6z m150 0 c0 -3 -7 -12 -15
-20 -13 -14 -15 -13 -15 5 0 12 6 21 15 21 8 0 15 -3 15 -6z m150 0 c0 -3 -6
-12 -14 -20 -20 -19 -26 -18 -26 6 0 13 7 20 20 20 11 0 20 -3 20 -6z m150 0
c0 -3 -6 -12 -14 -20 -16 -15 -32 -2 -21 16 7 11 35 14 35 4z m150 0 c0 -3 -7
-12 -15 -20 -13 -14 -15 -13 -15 5 0 12 6 21 15 21 8 0 15 -3 15 -6z m150 0
c0 -3 -7 -12 -15 -20 -13 -14 -15 -13 -15 5 0 12 6 21 15 21 8 0 15 -3 15 -6z
m150 0 c0 -3 -7 -12 -15 -20 -13 -14 -15 -13 -15 5 0 12 6 21 15 21 8 0 15 -3
15 -6z m150 0 c0 -3 -7 -12 -15 -20 -13 -14 -15 -13 -15 5 0 12 6 21 15 21 8
0 15 -3 15 -6z m150 0 c0 -3 -7 -12 -15 -20 -13 -14 -15 -13 -15 5 0 12 6 21
15 21 8 0 15 -3 15 -6z m150 0 c0 -3 -7 -12 -15 -20 -13 -14 -15 -13 -15 5 0
12 6 21 15 21 8 0 15 -3 15 -6z m160 3 c0 -2 -9 -12 -20 -22 -19 -18 -20 -17
-20 3 0 15 6 22 20 22 11 0 20 -2 20 -3z m140 -3 c0 -3 -7 -12 -15 -20 -13
-14 -15 -13 -15 5 0 12 6 21 15 21 8 0 15 -3 15 -6z m750 -3 c0 -5 -7 -14 -15
-21 -13 -10 -15 -9 -15 9 0 12 6 21 15 21 8 0 15 -4 15 -9z m150 0 c0 -5 -7
-14 -15 -21 -13 -10 -15 -9 -15 9 0 12 6 21 15 21 8 0 15 -4 15 -9z m160 3 c0
-7 -27 -34 -34 -34 -3 0 -6 9 -6 20 0 13 7 20 20 20 11 0 20 -3 20 -6z m150 0
c0 -7 -27 -34 -34 -34 -3 0 -6 9 -6 20 0 13 7 20 20 20 11 0 20 -3 20 -6z
m140 2 c0 -2 -3 -11 -6 -20 -9 -23 -24 -20 -24 4 0 11 7 20 15 20 8 0 15 -2
15 -4z m160 -2 c0 -3 -6 -12 -14 -20 -16 -15 -32 -2 -21 16 7 11 35 14 35 4z
m150 0 c0 -7 -27 -34 -34 -34 -3 0 -6 9 -6 20 0 13 7 20 20 20 11 0 20 -3 20
-6z m150 0 c0 -7 -27 -34 -34 -34 -3 0 -6 9 -6 20 0 13 7 20 20 20 11 0 20 -3
20 -6z m150 0 c0 -3 -6 -12 -14 -20 -16 -15 -32 -2 -21 16 7 11 35 14 35 4z
m150 0 c0 -3 -7 -12 -15 -20 -13 -14 -15 -13 -15 5 0 12 6 21 15 21 8 0 15 -3
15 -6z m150 0 c0 -3 -7 -12 -15 -20 -13 -14 -15 -13 -15 5 0 12 6 21 15 21 8
0 15 -3 15 -6z m150 0 c0 -7 -27 -34 -34 -34 -3 0 -6 9 -6 20 0 13 7 20 20 20
11 0 20 -3 20 -6z m150 0 c0 -3 -6 -12 -14 -20 -16 -15 -32 -2 -21 16 7 11 35
14 35 4z m150 0 c0 -3 -7 -12 -15 -20 -13 -14 -15 -13 -15 5 0 12 6 21 15 21
8 0 15 -3 15 -6z m-4743 -99 c-14 -29 -31 -28 -35 3 -3 18 2 22 21 22 23 0 24
-2 14 -25z m153 15 c0 -5 -4 -10 -9 -10 -5 0 -12 -8 -14 -17 -3 -11 -5 -7 -6
10 -1 18 4 27 14 27 8 0 15 -4 15 -10z m150 0 c0 -5 -4 -10 -9 -10 -5 0 -12
-8 -14 -17 -3 -11 -5 -7 -6 10 -1 18 4 27 14 27 8 0 15 -4 15 -10z m144 -15
c-9 -14 -18 -25 -20 -25 -2 0 -4 11 -4 25 0 18 5 25 20 25 20 0 20 -1 4 -25z
m156 10 c-7 -8 -16 -15 -21 -15 -5 0 -9 7 -9 15 0 9 9 15 21 15 18 0 19 -2 9
-15z m147 -10 c-15 -32 -27 -32 -27 0 0 18 5 25 19 25 17 0 18 -3 8 -25z m153
15 c0 -5 -4 -10 -9 -10 -5 0 -12 -8 -14 -17 -3 -11 -5 -7 -6 10 -1 18 4 27 14
27 8 0 15 -4 15 -10z m150 -5 c-7 -8 -16 -15 -21 -15 -5 0 -9 7 -9 15 0 9 9
15 21 15 18 0 19 -2 9 -15z m147 -10 c-15 -32 -27 -32 -27 0 0 18 5 25 19 25
17 0 18 -3 8 -25z m150 0 c-15 -32 -27 -32 -27 0 0 18 5 25 19 25 17 0 18 -3
8 -25z m163 15 c0 -5 -4 -10 -10 -10 -5 0 -10 -7 -10 -15 0 -8 -4 -15 -10 -15
-5 0 -10 11 -10 25 0 18 5 25 20 25 11 0 20 -4 20 -10z m137 -14 c-7 -14 -16
-21 -20 -17 -11 11 2 41 18 41 10 0 11 -5 2 -24z m150 -1 c-15 -32 -27 -32
-27 0 0 18 5 25 19 25 17 0 18 -3 8 -25z m163 15 c0 -5 -4 -10 -10 -10 -5 0
-10 -7 -10 -15 0 -8 -4 -15 -10 -15 -5 0 -10 11 -10 25 0 18 5 25 20 25 11 0
20 -4 20 -10z m750 0 c0 -5 -4 -10 -10 -10 -5 0 -10 -7 -10 -16 0 -8 -4 -12
-10 -9 -19 12 -11 45 10 45 11 0 20 -4 20 -10z m150 0 c0 -5 -4 -10 -9 -10 -5
0 -12 -8 -14 -17 -3 -11 -5 -7 -6 10 -1 18 4 27 14 27 8 0 15 -4 15 -10z m150
0 c0 -5 -4 -10 -9 -10 -5 0 -12 -8 -14 -17 -3 -11 -5 -7 -6 10 -1 18 4 27 14
27 8 0 15 -4 15 -10z m150 0 c0 -5 -4 -10 -9 -10 -5 0 -12 -8 -14 -17 -3 -11
-5 -7 -6 10 -1 18 4 27 14 27 8 0 15 -4 15 -10z m150 1 c0 -5 -7 -11 -15 -15
-9 -3 -15 0 -15 9 0 8 7 15 15 15 8 0 15 -4 15 -9z m150 -1 c0 -5 -4 -10 -9
-10 -5 0 -12 -8 -14 -17 -3 -11 -5 -7 -6 10 -1 18 4 27 14 27 8 0 15 -4 15
-10z m150 0 c0 -5 -5 -10 -11 -10 -5 0 -8 -4 -4 -9 3 -5 1 -12 -5 -16 -6 -4
-10 5 -10 19 0 16 6 26 15 26 8 0 15 -4 15 -10z m148 -2 c-6 -18 -28 -21 -28
-4 0 9 7 16 16 16 9 0 14 -5 12 -12z m152 2 c0 -5 -4 -10 -9 -10 -5 0 -12 -8
-14 -17 -3 -11 -5 -7 -6 10 -1 18 4 27 14 27 8 0 15 -4 15 -10z m150 0 c0 -5
-4 -10 -9 -10 -5 0 -12 -8 -14 -17 -3 -11 -5 -7 -6 10 -1 18 4 27 14 27 8 0
15 -4 15 -10z m150 2 c0 -5 -7 -17 -15 -28 -14 -18 -14 -18 -15 9 0 17 5 27
15 27 8 0 15 -4 15 -8z m147 -17 c-15 -32 -27 -32 -27 0 0 18 5 25 19 25 17 0
18 -3 8 -25z m149 9 c-3 -9 -6 -20 -6 -25 0 -5 -4 -9 -10 -9 -5 0 -10 11 -10
25 0 16 6 25 16 25 11 0 14 -5 10 -16z m154 6 c0 -5 -4 -10 -9 -10 -5 0 -12
-8 -14 -17 -3 -11 -5 -7 -6 10 -1 18 4 27 14 27 8 0 15 -4 15 -10z m-4463 -56
c13 -13 14 -17 3 -24 -11 -7 -10 -12 4 -25 9 -10 20 -14 24 -11 3 4 0 11 -7
16 -12 7 -11 11 3 26 15 14 19 15 27 3 12 -20 11 -25 -7 -44 -15 -15 -15 -17
0 -28 11 -8 15 -19 10 -30 -7 -20 -40 -23 -46 -5 -3 8 -15 2 -32 -15 -16 -16
-25 -31 -21 -35 4 -4 15 3 26 16 l18 23 28 -27 c17 -18 23 -29 15 -32 -7 -2
-12 -10 -12 -18 0 -8 -4 -14 -10 -14 -5 0 -10 5 -10 12 0 9 -3 9 -12 0 -7 -7
-21 -12 -32 -11 -12 0 -15 3 -8 6 21 8 13 21 -13 19 -31 -1 -31 -7 -1 -35 19
-18 22 -26 13 -36 -9 -9 -17 -10 -31 -1 -29 16 -49 36 -37 36 6 0 11 7 11 15
0 8 -4 15 -10 15 -5 0 -10 -4 -10 -10 0 -5 -4 -10 -10 -10 -5 0 -10 7 -10 15
0 8 -5 15 -11 15 -8 0 -7 5 2 16 10 13 10 17 0 24 -10 6 -8 10 8 15 21 6 29
25 11 25 -15 0 -12 19 6 37 13 14 17 14 25 2 8 -12 10 -12 19 1 5 8 9 20 9 25
0 6 -3 4 -6 -2 -7 -18 -23 -16 -23 3 0 20 24 44 44 44 9 0 16 5 16 10 0 15 19
12 37 -6z m412 2 c6 -7 9 -20 6 -27 -3 -8 6 -27 21 -42 l26 -28 -29 7 c-26 7
-27 6 -14 -10 10 -12 22 -15 39 -11 22 5 23 4 9 -10 -19 -18 -34 -19 -40 -2
-2 6 -8 9 -12 5 -4 -4 -2 -15 6 -24 7 -9 15 -32 16 -51 2 -29 0 -33 -13 -23
-10 9 -14 9 -14 1 0 -6 -10 -11 -22 -10 -13 0 -17 3 -10 6 22 9 13 20 -18 20
-16 0 -30 -2 -30 -5 0 -2 13 -16 29 -31 25 -24 27 -28 13 -41 -12 -10 -17 -11
-20 -2 -2 7 -12 12 -23 12 -19 0 -23 9 -19 45 2 16 0 17 -14 6 -13 -11 -16
-11 -16 2 0 8 6 17 13 20 8 3 5 11 -10 24 -22 19 -32 40 -15 29 4 -2 14 0 22
5 12 8 12 12 3 16 -17 6 -16 21 3 40 11 11 14 26 10 47 -5 24 -3 27 5 16 8
-11 12 -12 16 -2 2 6 13 12 24 12 10 0 19 5 19 10 0 15 26 12 39 -4z m410 0
c6 -7 9 -21 5 -30 -3 -9 -2 -16 4 -16 6 0 12 6 15 13 2 6 4 -3 4 -20 0 -22 -5
-33 -15 -33 -12 0 -12 -3 -2 -15 7 -8 19 -15 26 -15 8 0 14 -4 14 -10 0 -14
-28 -12 -33 3 -2 6 -8 9 -12 4 -5 -4 4 -20 18 -35 15 -16 27 -32 27 -38 0 -5
-4 -2 -10 6 -14 22 -23 5 -10 -19 12 -23 1 -28 -18 -9 -9 9 -12 9 -12 0 0 -7
-10 -12 -22 -11 -13 0 -17 3 -10 6 22 9 13 20 -18 20 l-31 0 31 -32 c37 -39
25 -61 -21 -38 -34 17 -43 29 -29 38 6 4 8 11 4 16 -4 6 -11 6 -20 -2 -11 -9
-14 -8 -14 4 0 8 6 17 13 20 8 3 4 11 -12 26 -13 11 -21 22 -18 22 4 1 12 2
19 3 15 1 23 26 9 26 -15 0 -14 19 3 36 11 10 15 11 19 1 3 -9 10 -7 23 5 10
10 14 21 10 25 -4 4 -11 1 -16 -7 -8 -13 -10 -12 -10 3 0 23 23 47 44 47 9 0
16 5 16 10 0 14 16 12 29 -4z m418 -2 c13 -13 14 -17 3 -24 -11 -7 -10 -12 4
-25 9 -10 20 -14 24 -11 3 4 0 11 -7 16 -12 7 -11 11 2 25 16 15 18 15 33 0
15 -14 14 -17 -7 -36 -20 -17 -21 -22 -9 -30 10 -6 4 -7 -20 -3 -28 5 -33 4
-23 -6 9 -10 6 -18 -12 -36 -26 -26 -45 -33 -25 -9 10 11 9 18 -3 30 -14 13
-15 11 -13 -20 4 -50 12 -53 49 -18 35 33 97 61 65 29 -9 -9 -24 -16 -32 -16
-22 0 -20 -9 7 -33 15 -13 18 -21 10 -24 -7 -3 -13 -11 -13 -19 0 -8 -4 -14
-10 -14 -5 0 -10 5 -10 12 0 9 -3 9 -12 0 -7 -7 -21 -12 -32 -11 -12 0 -15 3
-8 6 21 8 13 21 -13 21 -31 0 -31 -2 0 -35 19 -21 22 -30 12 -41 -7 -9 -13
-10 -15 -3 -2 6 -10 11 -19 11 -8 0 -21 7 -29 15 -9 8 -11 15 -5 15 6 0 11 7
11 15 0 8 -4 15 -10 15 -5 0 -10 -4 -10 -10 0 -5 -4 -10 -10 -10 -5 0 -10 7
-10 15 0 8 -5 15 -11 15 -8 0 -7 5 1 15 21 25 2 30 -20 5 -19 -22 -20 -22 -20
-3 0 13 12 24 35 33 33 13 47 30 25 30 -15 0 -12 19 6 37 13 13 17 14 24 3 7
-11 12 -10 25 4 10 9 14 20 10 24 -4 4 -10 1 -12 -5 -3 -7 -9 -13 -14 -13 -14
0 -11 30 5 46 8 8 22 14 30 14 9 0 16 5 16 10 0 15 19 12 37 -6z m419 -5 c23
-26 28 -79 7 -79 -13 0 -13 -3 -2 -16 8 -10 21 -13 37 -9 22 5 23 4 9 -10 -19
-18 -34 -19 -40 -2 -2 6 -8 9 -12 4 -5 -4 4 -20 18 -35 15 -16 27 -32 27 -38
0 -5 -4 -2 -10 6 -14 22 -23 5 -10 -19 12 -23 1 -28 -18 -9 -9 9 -12 9 -12 0
0 -7 -10 -12 -22 -11 -13 0 -17 3 -10 6 22 9 13 20 -18 20 -16 0 -30 -2 -30
-5 0 -2 13 -16 29 -31 25 -24 27 -28 13 -41 -12 -10 -17 -11 -20 -2 -2 7 -9
12 -17 12 -19 0 -39 27 -25 35 6 3 8 11 4 16 -4 6 -11 6 -20 -2 -11 -9 -14 -8
-14 4 0 8 6 17 13 20 8 3 5 11 -10 24 -22 19 -32 40 -15 29 4 -2 14 0 22 5 12
8 12 12 3 16 -17 6 -16 21 2 39 8 9 15 11 15 5 0 -6 5 -11 11 -11 6 0 8 9 4
20 -9 30 4 60 26 60 10 0 19 5 19 10 0 17 26 11 46 -11z m1051 -1 c13 -12 23
-26 23 -32 0 -6 -4 -4 -10 4 -5 8 -12 11 -16 7 -4 -4 0 -15 9 -25 21 -23 21
-32 1 -32 -14 0 -14 -3 -4 -15 7 -8 19 -15 26 -15 8 0 14 -4 14 -10 0 -14 -28
-12 -33 3 -2 6 -8 9 -12 5 -5 -5 0 -17 9 -27 10 -11 15 -24 12 -30 -4 -6 -2
-20 4 -31 12 -22 1 -27 -18 -8 -9 9 -12 9 -12 0 0 -7 -10 -12 -22 -11 -13 0
-17 3 -10 6 22 9 13 20 -18 20 l-31 0 30 -31 c36 -38 24 -61 -21 -39 -33 17
-42 29 -28 38 6 4 8 11 4 16 -4 6 -11 6 -20 -2 -11 -9 -14 -8 -14 4 0 8 6 17
13 20 8 3 4 11 -12 26 -13 11 -21 22 -18 22 4 1 12 2 19 3 15 1 23 26 9 26
-15 0 -14 19 3 36 11 10 15 11 19 1 3 -9 10 -7 23 5 10 10 14 21 10 25 -4 4
-11 1 -16 -7 -8 -13 -10 -12 -10 3 0 23 23 47 44 47 9 0 16 5 16 10 0 16 12
12 37 -12z m410 6 c13 -13 14 -17 3 -24 -11 -7 -10 -12 4 -25 9 -10 20 -14 24
-11 3 4 0 11 -7 16 -12 7 -11 11 3 26 15 14 19 15 27 3 12 -20 11 -25 -7 -44
-15 -15 -15 -17 0 -28 21 -16 11 -47 -15 -47 -10 0 -19 5 -19 10 0 6 9 10 20
10 11 0 20 4 20 9 0 10 -25 21 -48 21 -14 0 -14 -2 -3 -9 11 -7 9 -14 -12 -35
-28 -28 -48 -36 -27 -11 10 11 9 18 -3 30 -14 13 -15 11 -13 -20 4 -48 14 -55
37 -27 l18 23 28 -27 c17 -18 23 -29 15 -32 -7 -2 -12 -10 -12 -18 0 -8 -4
-14 -10 -14 -5 0 -10 5 -10 12 0 9 -3 9 -12 0 -7 -7 -21 -12 -32 -11 -12 0
-15 3 -8 6 21 8 13 21 -13 21 -31 0 -31 -2 0 -35 19 -21 22 -30 12 -41 -7 -9
-13 -10 -15 -3 -2 6 -10 11 -19 11 -8 0 -21 7 -29 15 -9 8 -11 15 -5 15 6 0
11 7 11 15 0 8 -4 15 -10 15 -5 0 -10 -4 -10 -10 0 -5 -4 -10 -10 -10 -5 0
-10 7 -10 15 0 8 -5 15 -11 15 -8 0 -7 5 2 16 10 13 10 17 -2 25 -14 8 -12 10
13 13 15 1 23 26 9 26 -16 0 -13 19 5 37 13 13 17 14 24 3 7 -11 12 -10 25 4
10 9 14 20 10 24 -4 4 -10 1 -12 -5 -7 -20 -23 -15 -23 6 0 11 -6 21 -12 24
-7 2 -9 8 -5 13 4 5 13 2 18 -6 8 -11 12 -12 16 -2 2 6 13 12 24 12 10 0 19 5
19 10 0 15 19 12 37 -6z m418 -4 c14 -16 20 -17 27 -8 6 10 10 10 19 -2 8 -11
12 -12 16 -2 6 14 43 16 43 2 0 -5 -7 -10 -16 -10 -9 0 -25 -10 -35 -22 -11
-11 -22 -18 -26 -14 -4 4 -1 11 7 16 8 5 11 13 6 17 -5 4 -11 2 -14 -6 -4 -11
-6 -11 -13 0 -4 7 -11 10 -15 7 -3 -4 0 -14 7 -22 42 -46 42 -47 12 -40 -26 7
-27 6 -14 -10 10 -12 22 -15 39 -11 22 5 23 4 9 -10 -19 -18 -34 -19 -40 -2
-2 6 -8 9 -12 5 -4 -4 -2 -15 6 -24 7 -9 15 -32 16 -51 2 -29 0 -33 -13 -23
-10 9 -14 9 -14 1 0 -6 -10 -11 -22 -10 -13 0 -17 3 -10 6 22 9 13 20 -18 20
-16 0 -30 -2 -30 -5 0 -2 13 -16 29 -31 25 -24 27 -28 13 -41 -12 -10 -17 -11
-20 -2 -2 7 -9 12 -17 12 -19 0 -39 27 -25 35 6 3 8 11 4 16 -4 6 -11 6 -20
-2 -11 -9 -14 -8 -14 4 0 8 6 17 13 20 8 3 5 11 -10 24 -26 23 -30 35 -9 27 8
-3 17 0 22 7 4 7 2 15 -4 17 -16 5 -15 20 3 38 8 9 15 11 15 5 0 -6 5 -11 11
-11 6 0 8 9 4 20 -9 30 4 60 26 60 10 0 19 5 19 10 0 17 26 11 45 -10z m411
-1 c23 -26 28 -79 7 -79 -13 0 -13 -3 -3 -15 7 -8 19 -15 26 -15 8 0 14 -4 14
-10 0 -14 -28 -12 -33 3 -2 6 -8 9 -12 5 -5 -5 0 -17 9 -27 10 -11 15 -25 11
-31 -4 -6 -1 -18 6 -26 16 -19 4 -30 -16 -14 -10 8 -15 9 -15 1 0 -6 -10 -11
-22 -10 -13 0 -17 3 -10 6 22 9 13 20 -18 20 l-31 0 31 -32 c37 -39 25 -61
-21 -38 -34 17 -43 29 -29 38 6 4 8 11 4 16 -4 6 -11 6 -20 -2 -11 -9 -14 -9
-14 0 0 20 -33 48 -38 33 -5 -17 -22 -15 -22 3 0 8 18 23 40 32 38 17 53 33
30 33 -15 0 -12 19 4 36 11 10 15 11 19 1 3 -9 10 -7 23 5 10 10 14 21 10 25
-4 4 -11 1 -16 -7 -8 -13 -10 -12 -10 3 0 23 23 47 44 47 9 0 16 5 16 10 0 16
16 12 36 -11z m411 5 c13 -13 14 -17 3 -24 -11 -7 -10 -12 4 -25 9 -10 20 -14
24 -11 3 4 0 11 -7 16 -12 7 -11 11 2 25 16 15 18 15 33 0 15 -14 14 -17 -7
-36 -20 -17 -21 -22 -9 -30 10 -6 4 -7 -20 -3 -24 4 -31 3 -21 -4 11 -8 9 -15
-12 -36 -28 -28 -48 -36 -27 -11 10 11 9 18 -3 30 -14 13 -15 11 -13 -20 4
-50 12 -53 49 -18 35 33 97 61 65 29 -9 -9 -24 -16 -32 -16 -22 0 -20 -9 7
-33 15 -13 18 -21 10 -24 -7 -3 -13 -11 -13 -19 0 -8 -4 -14 -10 -14 -5 0 -10
5 -10 12 0 9 -3 9 -12 0 -7 -7 -21 -12 -32 -11 -12 0 -15 3 -8 6 21 8 13 21
-13 21 -31 0 -31 -2 0 -35 19 -21 22 -30 12 -41 -7 -9 -13 -10 -15 -3 -2 6
-10 11 -19 11 -8 0 -21 7 -29 15 -9 8 -11 15 -5 15 6 0 11 7 11 15 0 8 -4 15
-10 15 -5 0 -10 -4 -10 -10 0 -5 -4 -10 -10 -10 -5 0 -10 7 -10 15 0 8 -5 15
-11 15 -8 0 -7 5 2 16 10 13 10 17 -2 25 -14 8 -12 10 13 13 15 1 23 26 9 26
-16 0 -13 19 5 37 13 13 17 14 24 3 7 -11 12 -10 25 4 10 9 14 20 10 24 -4 4
-10 1 -12 -5 -7 -18 -23 -16 -23 3 0 20 24 44 44 44 9 0 16 5 16 10 0 15 19
12 37 -6z m-4477 -10 c0 -7 -27 -34 -34 -34 -3 0 -6 9 -6 20 0 13 7 20 20 20
11 0 20 -3 20 -6z m300 0 c0 -3 -7 -12 -15 -20 -13 -14 -15 -13 -15 5 0 12 6
21 15 21 8 0 15 -3 15 -6z m286 -9 c14 -13 14 -17 0 -30 -8 -8 -17 -15 -19
-15 -3 0 -7 7 -11 15 -5 15 2 45 11 45 2 0 11 -7 19 -15z m164 9 c0 -3 -6 -12
-14 -20 -16 -15 -32 -2 -21 16 7 11 35 14 35 4z m300 -4 c0 -5 -7 -10 -15 -10
-8 0 -15 5 -15 10 0 6 7 10 15 10 8 0 15 -4 15 -10z m150 4 c0 -3 -7 -12 -15
-20 -13 -14 -15 -13 -15 5 0 12 6 21 15 21 8 0 15 -3 15 -6z m300 0 c0 -3 -7
-12 -15 -20 -13 -14 -15 -13 -15 5 0 12 6 21 15 21 8 0 15 -3 15 -6z m150 -3
c0 -5 -7 -14 -15 -21 -13 -10 -15 -9 -15 9 0 12 6 21 15 21 8 0 15 -4 15 -9z
m177 -35 c-12 -12 -14 -10 -14 14 0 24 2 26 14 14 12 -12 12 -16 0 -28z m123
38 c0 -3 -7 -12 -15 -20 -13 -14 -15 -13 -15 5 0 12 6 21 15 21 8 0 15 -3 15
-6z m750 -3 c0 -5 -7 -14 -15 -21 -13 -10 -15 -9 -15 9 0 12 6 21 15 21 8 0
15 -4 15 -9z m310 3 c0 -7 -27 -34 -34 -34 -3 0 -6 9 -6 20 0 13 7 20 20 20
11 0 20 -3 20 -6z m443 -1 c3 -5 -1 -14 -9 -20 -14 -14 -30 0 -19 17 7 12 22
13 28 3z m457 1 c0 -10 -31 -36 -37 -31 -10 10 6 37 22 37 8 0 15 -3 15 -6z
m300 0 c0 -3 -7 -12 -15 -20 -13 -14 -15 -13 -15 5 0 12 6 21 15 21 8 0 15 -3
15 -6z m150 0 c0 -7 -27 -34 -34 -34 -3 0 -6 9 -6 20 0 13 7 20 20 20 11 0 20
-3 20 -6z m300 0 c0 -3 -7 -12 -15 -20 -13 -14 -15 -13 -15 5 0 12 6 21 15 21
8 0 15 -3 15 -6z m-4737 -81 c-7 -2 -13 -13 -13 -24 0 -20 -15 -26 -25 -9 -12
19 4 40 27 39 13 0 17 -3 11 -6z m439 -18 c-2 -14 -8 -25 -13 -25 -5 0 -9 11
-9 25 0 14 6 25 14 25 9 0 12 -8 8 -25z m311 18 c-7 -2 -19 -2 -25 0 -7 3 -2
5 12 5 14 0 19 -2 13 -5z m450 0 c-7 -2 -13 -13 -13 -24 0 -10 -4 -19 -10 -19
-5 0 -10 11 -10 25 0 19 5 25 23 24 12 0 16 -3 10 -6z m450 0 c-7 -2 -13 -14
-13 -26 -1 -20 -2 -20 -11 -4 -12 21 -4 37 19 36 11 0 12 -3 5 -6z m1050 0
c-7 -2 -13 -14 -13 -26 0 -16 -3 -18 -11 -10 -16 16 -4 43 18 42 11 0 13 -3 6
-6z m451 -1 c-7 -4 -14 -16 -17 -27 -4 -15 -5 -14 -6 8 -1 20 4 27 17 27 11 0
13 -3 6 -8z m303 2 c-3 -3 -12 -4 -19 -1 -8 3 -5 6 6 6 11 1 17 -2 13 -5z
m446 -6 c-6 -7 -13 -20 -16 -28 -3 -9 -6 -3 -6 13 -1 19 4 27 15 27 12 0 14
-4 7 -12z m460 5 c-7 -2 -13 -13 -13 -24 0 -10 -4 -19 -10 -19 -5 0 -10 11
-10 25 0 19 5 25 23 24 12 0 16 -3 10 -6z m-3983 -69 c0 -3 -7 -12 -15 -20
-13 -14 -15 -13 -15 5 0 12 6 21 15 21 8 0 15 -3 15 -6z m320 -4 c0 -5 -4 -10
-10 -10 -5 0 -10 5 -10 10 0 6 5 10 10 10 6 0 10 -4 10 -10z m130 4 c0 -3 -6
-12 -14 -20 -16 -15 -32 -2 -21 16 7 11 35 14 35 4z m1110 -4 c0 -5 -4 -10
-10 -10 -5 0 -10 5 -10 10 0 6 5 10 10 10 6 0 10 -4 10 -10z m90 4 c0 -3 -7
-12 -15 -20 -13 -14 -15 -13 -15 5 0 12 6 21 15 21 8 0 15 -3 15 -6z m1053 0
c6 -6 -16 -34 -27 -34 -3 0 -6 9 -6 20 0 19 20 27 33 14z m450 0 c3 -4 -1 -13
-9 -21 -17 -18 -29 -11 -21 12 7 16 19 20 30 9z m287 -4 c0 -5 -4 -10 -10 -10
-5 0 -10 5 -10 10 0 6 5 10 10 10 6 0 10 -4 10 -10z m457 -15 c-15 -16 -19
-13 -11 9 3 9 10 13 15 10 5 -3 3 -11 -4 -19z m463 19 c0 -3 -7 -12 -15 -20
-13 -14 -15 -13 -15 5 0 12 6 21 15 21 8 0 15 -3 15 -6z m-4080 -24 c0 -5 -4
-10 -10 -10 -5 0 -10 5 -10 10 0 6 5 10 10 10 6 0 10 -4 10 -10z m75 0 c3 -5
1 -10 -4 -10 -6 0 -11 5 -11 10 0 6 2 10 4 10 3 0 8 -4 11 -10z m1240 0 c3 -5
1 -10 -4 -10 -6 0 -11 5 -11 10 0 6 2 10 4 10 3 0 8 -4 11 -10z m1050 0 c3 -5
1 -10 -4 -10 -6 0 -11 5 -11 10 0 6 2 10 4 10 3 0 8 -4 11 -10z m755 0 c0 -5
-4 -10 -10 -10 -5 0 -10 5 -10 10 0 6 5 10 10 10 6 0 10 -4 10 -10z m75 0 c3
-5 1 -10 -4 -10 -6 0 -11 5 -11 10 0 6 2 10 4 10 3 0 8 -4 11 -10z m-3855
-104 c6 -8 17 -14 23 -12 7 1 9 1 5 -1 -18 -10 -6 -24 14 -17 21 6 21 6 4 -11
-15 -15 -19 -16 -27 -4 -5 8 -9 17 -9 22 0 9 -20 9 -20 -1 0 -4 12 -20 26 -35
l26 -28 -26 7 c-16 4 -26 2 -26 -5 0 -6 5 -11 11 -11 6 0 4 -7 -5 -15 -26 -26
-31 -17 -32 55 0 71 10 86 36 56z m412 -3 c10 -9 18 -21 18 -27 0 -6 -4 -4
-10 4 -5 8 -12 11 -16 7 -4 -4 0 -15 9 -25 21 -23 21 -32 2 -32 -8 0 -15 -4
-15 -10 0 -5 5 -10 11 -10 6 0 3 -7 -5 -16 -15 -14 -17 -14 -32 0 -18 18 -34
21 -34 6 0 -5 5 -10 12 -10 9 0 9 -3 0 -12 -9 -9 -8 -16 4 -29 16 -17 17 -17
34 3 16 21 18 21 34 5 10 -9 13 -17 7 -17 -6 0 -8 -12 -5 -28 4 -19 1 -32 -10
-41 -9 -8 -16 -9 -16 -3 0 6 6 12 13 15 6 2 9 8 5 12 -4 4 -15 2 -23 -5 -13
-11 -20 -9 -40 10 -14 13 -28 21 -31 17 -4 -4 8 -20 26 -37 36 -34 29 -53 -14
-42 -29 8 -55 34 -38 40 6 2 12 8 12 13 0 14 -28 11 -33 -3 -3 -7 -6 -3 -6 10
-1 12 4 22 11 22 6 0 1 11 -11 24 l-22 23 21 6 c18 5 19 8 9 25 -10 16 -10 23
3 36 12 12 18 13 21 3 3 -9 10 -7 23 5 10 10 14 21 10 25 -4 4 -12 1 -17 -7
-8 -12 -10 -11 -7 4 3 18 50 53 72 55 5 1 18 -6 28 -16z m407 3 c9 -11 9 -15
-1 -19 -7 -2 -10 -8 -6 -12 5 -5 17 0 28 10 11 10 23 15 27 12 3 -4 1 -7 -5
-7 -7 0 -12 -5 -12 -11 0 -6 7 -9 15 -5 19 7 19 1 -2 -19 -14 -14 -14 -18 -2
-26 9 -6 3 -7 -18 -3 -22 4 -33 3 -33 -5 0 -6 5 -11 12 -11 8 0 6 -6 -5 -17
-15 -16 -18 -16 -35 1 -19 16 -20 16 -20 -11 0 -44 17 -57 39 -32 17 19 20 20
34 5 9 -9 12 -16 6 -16 -6 0 -11 -5 -11 -11 0 -6 10 -8 23 -5 12 3 16 3 10 0
-7 -3 -13 -12 -13 -20 0 -8 -6 -21 -12 -28 -10 -11 -18 -10 -45 5 -35 20 -44
11 -16 -16 13 -14 14 -18 3 -25 -22 -14 -100 38 -100 66 0 7 -6 15 -12 18 -7
3 -3 3 10 0 28 -7 28 3 0 27 l-21 19 21 0 c13 0 22 6 22 15 0 8 -4 15 -10 15
-15 0 -12 19 6 37 13 13 17 14 24 3 7 -11 12 -10 25 4 10 9 14 20 10 24 -4 4
-10 1 -12 -5 -6 -16 -23 -17 -23 -2 0 12 16 28 45 46 27 16 40 16 54 -1z m421
0 c6 -8 17 -14 23 -12 7 1 9 1 5 -1 -18 -10 -6 -24 14 -17 21 6 21 6 4 -11
-15 -15 -19 -16 -27 -4 -5 8 -9 17 -9 22 0 10 -20 9 -20 -1 0 -4 16 -25 35
-45 19 -20 31 -37 26 -37 -5 0 -14 7 -21 15 -14 17 -40 20 -40 5 0 -5 5 -10
12 -10 8 0 6 -6 -5 -17 -15 -16 -18 -16 -37 2 -11 10 -23 15 -27 11 -4 -4 -1
-11 7 -16 10 -7 11 -10 3 -10 -7 0 -13 -5 -13 -10 0 -6 6 -17 13 -25 10 -11
16 -10 35 8 19 17 25 19 32 8 4 -8 6 -20 3 -28 -3 -8 0 -12 8 -10 8 2 11 2 7
0 -5 -3 -8 -13 -8 -23 0 -9 -7 -23 -15 -30 -10 -9 -15 -9 -15 -1 0 6 -9 11
-20 11 -22 0 -27 16 -7 23 6 2 8 8 4 13 -4 5 -12 2 -18 -6 -8 -13 -10 -13 -18
0 -6 8 -13 11 -17 8 -4 -4 7 -21 24 -37 27 -25 30 -30 17 -41 -12 -10 -18 -10
-30 0 -8 7 -15 9 -15 6 0 -4 -8 0 -17 10 -13 13 -14 19 -5 22 6 2 12 8 12 13
0 14 -28 11 -33 -3 -3 -7 -6 -3 -6 10 -1 12 4 22 11 22 6 0 1 11 -12 25 l-23
25 21 0 c25 0 26 3 10 29 -9 15 -8 22 5 36 9 9 17 12 17 6 0 -6 5 -11 11 -11
6 0 8 7 5 16 -10 26 3 54 25 54 10 0 19 5 19 10 0 15 36 12 50 -4z m425 -16
c23 -24 26 -32 15 -45 -7 -8 -19 -15 -26 -15 -8 0 -14 -4 -14 -10 0 -5 5 -10
11 -10 6 0 3 -7 -5 -16 -15 -14 -17 -14 -32 0 -18 18 -34 21 -34 6 0 -5 5 -10
12 -10 9 0 9 -3 0 -12 -9 -9 -8 -16 4 -29 16 -17 17 -17 34 3 16 20 19 21 34
6 12 -12 13 -18 3 -21 -9 -3 -9 -8 2 -21 13 -15 12 -20 -7 -39 -12 -12 -22
-16 -22 -9 0 6 -5 12 -12 12 -6 0 -22 10 -35 22 -13 12 -26 19 -29 15 -4 -4 8
-20 26 -37 27 -25 31 -33 20 -40 -8 -5 -19 -5 -26 0 -6 6 -14 7 -17 4 -3 -4
-14 2 -24 12 -13 12 -14 19 -5 22 20 6 13 25 -8 19 -13 -3 -20 0 -20 8 0 7 -6
16 -12 19 -7 3 -2 3 12 -1 23 -5 24 -5 10 13 -8 10 -19 22 -25 26 -5 4 0 8 13
8 25 0 26 3 10 29 -9 15 -8 22 4 34 10 10 19 12 25 6 6 -6 14 -4 23 6 7 8 10
19 6 22 -4 4 -12 1 -17 -7 -8 -12 -10 -11 -7 4 3 18 50 54 74 55 5 1 23 -12
39 -29z m1455 16 c6 -8 19 -12 28 -9 14 6 15 5 2 -9 -10 -11 -17 -12 -22 -5
-4 6 -10 8 -14 4 -4 -3 -1 -13 6 -22 12 -14 15 -14 30 0 9 8 20 15 25 15 4 0
-2 -9 -15 -20 l-23 -20 23 -20 c13 -11 18 -20 13 -20 -6 0 -16 7 -23 15 -14
17 -40 20 -40 5 0 -5 5 -10 12 -10 8 0 6 -6 -5 -17 -15 -16 -18 -16 -37 2 -11
10 -23 15 -27 11 -4 -4 -1 -11 7 -16 10 -7 11 -10 3 -10 -7 0 -13 -5 -13 -10
0 -6 6 -17 13 -25 10 -11 16 -10 35 8 19 17 25 19 32 8 4 -8 6 -20 3 -28 -3
-8 0 -12 8 -10 8 2 11 2 7 0 -5 -3 -8 -13 -8 -23 0 -9 -7 -23 -15 -30 -10 -9
-15 -9 -15 -1 0 6 -9 11 -20 11 -22 0 -27 16 -7 23 6 2 8 8 4 13 -4 5 -12 2
-18 -6 -8 -13 -10 -13 -18 0 -6 8 -13 11 -17 8 -4 -4 7 -21 24 -37 27 -24 30
-31 17 -41 -22 -18 -71 9 -68 38 3 23 -12 30 -20 10 -3 -7 -6 -3 -6 10 -1 12
4 22 11 22 6 0 1 11 -11 24 l-22 23 21 6 c18 5 19 8 9 25 -10 16 -10 23 4 37
9 9 17 21 17 26 0 16 27 39 44 39 9 0 16 5 16 10 0 15 36 12 50 -4z m420 -13
c17 -14 30 -31 30 -36 0 -6 -9 0 -20 13 -11 13 -23 20 -27 17 -3 -4 1 -15 10
-25 21 -23 21 -32 2 -32 -8 0 -15 -4 -15 -10 0 -5 5 -10 12 -10 8 0 6 -6 -5
-17 -15 -16 -18 -16 -37 2 -11 10 -23 15 -27 11 -4 -4 -1 -11 6 -15 10 -6 10
-10 1 -16 -8 -5 -7 -12 6 -26 16 -18 17 -18 34 3 16 20 19 21 34 6 10 -11 12
-18 4 -20 -8 -3 -8 -9 0 -25 9 -17 8 -24 -8 -38 -12 -10 -20 -13 -20 -7 0 7
-5 12 -12 12 -6 0 -22 10 -35 22 -13 12 -26 19 -29 15 -4 -4 8 -20 26 -37 26
-25 31 -33 20 -40 -8 -5 -22 -4 -32 1 -10 5 -18 7 -18 4 0 -4 -8 1 -17 11 -13
13 -14 19 -5 22 6 2 12 8 12 13 0 14 -28 11 -33 -3 -3 -7 -6 -3 -6 10 -1 12 4
22 11 22 6 0 1 11 -12 25 l-23 25 21 0 c25 0 26 3 10 29 -9 15 -8 22 4 35 12
12 18 13 21 3 3 -9 10 -7 23 5 10 10 14 21 10 25 -4 4 -12 1 -17 -7 -8 -12
-10 -11 -7 4 3 17 49 53 71 55 4 1 21 -11 37 -26z m399 13 c9 -11 9 -15 -1
-19 -7 -2 -10 -8 -6 -12 5 -5 17 0 28 10 11 10 23 15 27 12 3 -4 1 -7 -5 -7
-7 0 -12 -5 -12 -11 0 -6 9 -8 23 -3 22 6 22 6 -2 -15 l-24 -21 23 -20 c13
-11 18 -20 13 -20 -6 0 -16 7 -23 15 -14 17 -50 20 -50 5 0 -5 5 -10 12 -10 8
0 6 -6 -4 -16 -15 -16 -18 -16 -33 0 -22 21 -22 21 -23 -11 0 -44 17 -57 39
-32 17 19 20 20 34 5 9 -9 12 -16 6 -16 -6 0 -11 -5 -11 -11 0 -6 10 -8 23 -5
12 3 16 3 10 0 -7 -3 -13 -12 -13 -20 0 -8 -6 -21 -12 -28 -10 -11 -18 -10
-45 5 -35 20 -44 11 -16 -16 13 -13 13 -19 4 -25 -7 -4 -21 -5 -31 -3 -23 6
-58 43 -42 43 7 0 12 5 12 11 0 6 -9 8 -20 4 -14 -4 -20 -2 -20 8 0 9 -6 18
-12 21 -7 3 -3 3 10 0 28 -7 28 3 0 27 l-21 19 21 0 c13 0 22 6 22 15 0 8 -4
15 -10 15 -15 0 -12 19 6 37 13 13 17 14 24 3 7 -11 12 -10 25 4 10 9 14 20
10 24 -4 4 -10 1 -12 -5 -6 -16 -23 -17 -23 -2 0 12 16 28 45 46 27 16 40 16
54 -1z m423 -3 c10 -9 18 -21 18 -27 0 -6 -4 -4 -10 4 -5 8 -12 11 -16 7 -4
-4 0 -15 10 -25 16 -16 18 -16 27 1 6 9 14 17 19 17 6 0 0 -11 -12 -25 -12
-14 -28 -25 -35 -25 -7 0 -13 -4 -13 -10 0 -5 5 -10 12 -10 8 0 6 -6 -5 -17
-15 -16 -18 -16 -37 2 -11 10 -23 15 -27 11 -4 -4 -1 -11 7 -16 10 -7 11 -10
3 -10 -7 0 -13 -5 -13 -10 0 -6 6 -17 13 -25 10 -11 16 -10 34 7 20 18 23 19
37 5 12 -11 13 -16 3 -20 -9 -3 -9 -8 2 -21 12 -14 11 -19 -4 -36 -10 -11 -21
-18 -24 -15 -3 4 1 10 9 15 8 5 12 12 8 15 -3 4 -15 1 -27 -6 -11 -7 -24 -10
-28 -6 -4 5 -1 12 7 17 8 5 11 12 7 17 -5 4 -12 1 -18 -7 -8 -13 -10 -13 -18
0 -6 8 -13 11 -17 8 -4 -4 7 -21 24 -37 26 -23 29 -31 18 -40 -15 -13 -43 -5
-66 18 -11 11 -12 15 -2 19 6 2 12 8 12 13 0 14 -28 11 -33 -3 -3 -7 -6 -3 -6
9 -1 12 4 23 9 25 6 2 2 13 -10 26 -21 22 -21 22 0 22 23 0 24 3 8 29 -9 15
-8 22 5 36 9 9 17 12 17 6 0 -6 5 -11 11 -11 6 0 8 7 5 16 -10 26 3 54 25 54
10 0 19 5 19 10 0 16 32 12 52 -7z m398 -53 c0 -38 -3 -70 -6 -70 -3 0 -12 7
-20 15 -9 8 -21 15 -27 15 -8 0 -8 -3 1 -12 8 -8 8 -16 2 -23 -7 -8 -4 -18 10
-30 11 -10 20 -13 20 -7 0 7 5 12 10 12 6 0 10 -16 10 -35 0 -41 -14 -44 -47
-13 -13 12 -26 19 -29 15 -4 -4 8 -20 26 -37 36 -34 29 -53 -14 -42 -29 8 -55
34 -38 40 20 6 13 25 -8 19 -13 -3 -20 0 -20 8 0 7 -6 16 -12 19 -7 3 -2 3 12
-1 23 -5 24 -5 10 13 -8 10 -19 22 -25 26 -5 4 0 8 13 8 25 0 26 3 10 29 -9
15 -8 22 4 34 10 10 19 12 25 6 6 -6 14 -4 23 6 7 8 10 19 6 22 -4 4 -12 1
-17 -7 -8 -12 -10 -11 -7 4 3 19 51 54 76 55 8 1 12 -19 12 -69z m-345 -49
c-6 -5 -25 10 -25 20 0 5 6 4 14 -3 8 -7 12 -15 11 -17z m-4378 -17 c-3 -3
-12 -4 -19 -1 -8 3 -5 6 6 6 11 1 17 -2 13 -5z m410 0 c-3 -3 -12 -4 -19 -1
-8 3 -5 6 6 6 11 1 17 -2 13 -5z m416 -1 c-7 -2 -19 -2 -25 0 -7 3 -2 5 12 5
14 0 19 -2 13 -5z m414 1 c-3 -3 -12 -4 -19 -1 -8 3 -5 6 6 6 11 1 17 -2 13
-5z m410 0 c-3 -3 -12 -4 -19 -1 -8 3 -5 6 6 6 11 1 17 -2 13 -5z m1470 0 c-3
-3 -12 -4 -19 -1 -8 3 -5 6 6 6 11 1 17 -2 13 -5z m410 0 c-3 -3 -12 -4 -19
-1 -8 3 -5 6 6 6 11 1 17 -2 13 -5z m416 -1 c-7 -2 -19 -2 -25 0 -7 3 -2 5 12
5 14 0 19 -2 13 -5z m414 1 c-3 -3 -12 -4 -19 -1 -8 3 -5 6 6 6 11 1 17 -2 13
-5z m-4386 -26 c1 -7 1 -19 0 -25 -1 -7 4 -11 11 -9 7 1 10 1 6 -1 -5 -3 -8
-13 -8 -23 0 -9 -7 -23 -15 -30 -9 -8 -15 -8 -15 -2 0 6 6 12 13 15 6 2 9 8 5
12 -4 4 -14 2 -23 -5 -16 -13 -17 -11 -19 30 -2 33 42 70 45 38z m49 -68 c0
-5 -4 -10 -10 -10 -5 0 -10 5 -10 10 0 6 5 10 10 10 6 0 10 -4 10 -10z m1240
0 c0 -5 -4 -10 -10 -10 -5 0 -10 5 -10 10 0 6 5 10 10 10 6 0 10 -4 10 -10z
m1880 0 c0 -5 -4 -10 -10 -10 -5 0 -10 5 -10 10 0 6 5 10 10 10 6 0 10 -4 10
-10z m830 0 c0 -5 -4 -10 -10 -10 -5 0 -10 5 -10 10 0 6 5 10 10 10 6 0 10 -4
10 -10z m410 0 c0 -5 -4 -10 -10 -10 -5 0 -10 5 -10 10 0 6 5 10 10 10 6 0 10
-4 10 -10z"/>
<path d="M2322 4621 c4 -13 18 -16 19 -4 0 4 -5 9 -11 12 -7 2 -11 -2 -8 -8z"/>
<path d="M2590 4614 c0 -8 5 -12 10 -9 6 3 10 10 10 16 0 5 -4 9 -10 9 -5 0
-10 -7 -10 -16z"/>
<path d="M2230 4580 c0 -5 5 -10 10 -10 6 0 10 5 10 10 0 6 -4 10 -10 10 -5 0
-10 -4 -10 -10z"/>
<path d="M2680 4580 c0 -5 5 -10 10 -10 6 0 10 5 10 10 0 6 -4 10 -10 10 -5 0
-10 -4 -10 -10z"/>
<path d="M2230 4540 c0 -5 5 -10 10 -10 6 0 10 -11 10 -25 0 -14 5 -25 10 -25
17 0 12 57 -6 64 -21 8 -24 8 -24 -4z"/>
<path d="M2672 4538 c-15 -15 -16 -58 -2 -58 6 0 10 11 10 25 0 14 5 25 10 25
6 0 10 5 10 10 0 14 -13 13 -28 -2z"/>
<path d="M2360 4474 c0 -10 28 -34 39 -34 6 0 11 -4 11 -10 0 -6 -27 -10 -60
-10 -33 0 -60 4 -60 10 0 20 -51 10 -75 -15 -25 -24 -35 -85 -15 -85 6 0 10
-18 10 -40 0 -22 5 -40 10 -40 6 0 10 -7 10 -15 0 -20 74 -95 94 -95 10 0 25
7 34 16 15 15 18 14 38 -10 19 -21 32 -26 69 -26 38 0 50 5 70 27 22 27 24 27
42 10 11 -9 26 -17 34 -17 19 0 89 76 89 95 0 8 5 15 10 15 6 0 10 15 10 34 0
19 5 38 10 41 19 12 11 65 -15 90 -24 25 -75 35 -75 15 0 -6 -27 -10 -60 -10
-33 0 -60 4 -60 10 0 6 5 10 11 10 16 0 43 30 34 38 -4 4 -10 1 -12 -5 -3 -7
-11 -13 -20 -13 -19 0 -43 -24 -43 -44 0 -10 -9 -16 -25 -16 -16 0 -25 6 -25
16 0 17 -14 32 -48 52 -24 13 -32 15 -32 6z m0 -99 c0 -16 -45 -21 -54 -6 -8
12 -1 16 28 19 17 1 26 -3 26 -13z m261 -1 c0 -5 -12 -10 -26 -12 -18 -2 -25
1 -25 13 0 11 7 15 25 12 14 -2 26 -7 26 -13z m-131 -59 c0 -36 3 -65 8 -65 4
0 13 -13 20 -30 12 -27 11 -31 -12 -55 -31 -31 -50 -32 -81 0 -26 25 -32 45
-15 45 6 0 10 9 10 20 0 11 5 20 10 20 6 0 10 28 10 65 0 63 1 65 25 65 24 0
25 -2 25 -65z"/>
<path d="M1200 3640 c0 -5 5 -10 11 -10 5 0 7 5 4 10 -3 6 -8 10 -11 10 -2 0
-4 -4 -4 -10z"/>
<path d="M1877 2921 c-4 -18 0 -21 25 -21 23 0 29 4 26 18 -5 25 -44 28 -51 3z"/>
<path d="M2282 2924 c-21 -22 -14 -44 13 -44 28 0 34 23 12 44 -10 11 -15 11
-25 0z"/>
<path d="M2420 2921 c0 -17 6 -21 31 -21 24 0 30 4 27 18 -2 10 -14 18 -31 20
-22 3 -27 -1 -27 -17z"/>
<path d="M3183 2924 c-23 -24 -15 -44 17 -44 34 0 40 18 13 43 -15 13 -20 13
-30 1z"/>
<path d="M1274 2717 c-3 -8 -4 -30 -2 -49 3 -28 7 -33 31 -36 28 -3 28 -3 25
45 -3 41 -6 48 -26 51 -13 2 -24 -3 -28 -11z"/>
<path d="M2237 2724 c-17 -18 -6 -35 21 -32 16 2 27 9 27 18 0 16 -36 26 -48
14z"/>
<path d="M2460 2324 c0 -8 5 -12 10 -9 6 4 8 11 5 16 -9 14 -15 11 -15 -7z"/>
<path d="M2530 2319 c0 -5 5 -7 10 -4 6 3 10 8 10 11 0 2 -4 4 -10 4 -5 0 -10
-5 -10 -11z"/>
<path d="M2480 2284 c0 -11 5 -14 16 -10 9 3 20 6 25 6 5 0 9 5 9 10 0 6 -11
10 -25 10 -16 0 -25 -6 -25 -16z"/>
<path d="M2455 2230 c-4 -6 13 -10 44 -10 28 0 51 5 51 10 0 6 -20 10 -44 10
-25 0 -48 -4 -51 -10z"/>
<path d="M3475 2230 c-3 -5 -1 -10 4 -10 6 0 11 5 11 10 0 6 -2 10 -4 10 -3 0
-8 -4 -11 -10z"/>
<path d="M2530 1400 c0 -5 5 -10 10 -10 6 0 10 5 10 10 0 6 -4 10 -10 10 -5 0
-10 -4 -10 -10z"/>
<path d="M2475 1352 c-15 -15 -2 -32 25 -32 37 0 41 26 5 32 -13 3 -27 3 -30
0z"/>
<path d="M370 630 c0 -5 5 -10 10 -10 6 0 10 5 10 10 0 6 -4 10 -10 10 -5 0
-10 -4 -10 -10z"/>
<path d="M340 565 c13 -16 50 -21 50 -6 0 10 -24 21 -47 21 -13 0 -13 -3 -3
-15z"/>
<path d="M270 561 c0 -5 6 -12 13 -14 9 -4 8 -8 -3 -16 -8 -5 -11 -13 -7 -17
4 -4 15 -1 24 8 14 15 14 18 0 32 -18 18 -27 20 -27 7z"/>
<path d="M200 480 c0 -5 5 -10 10 -10 6 0 10 5 10 10 0 6 -4 10 -10 10 -5 0
-10 -4 -10 -10z"/>
<path d="M350 480 c0 -5 5 -10 10 -10 6 0 10 5 10 10 0 6 -4 10 -10 10 -5 0
-10 -4 -10 -10z"/>
<path d="M661 604 c-18 -21 -6 -30 14 -11 8 9 15 18 15 21 0 11 -15 5 -29 -10z"/>
<path d="M690 562 c0 -13 49 -56 56 -49 3 3 -5 17 -19 31 -27 27 -37 32 -37
18z"/>
<path d="M690 524 c0 -10 31 -36 37 -31 3 3 -2 13 -10 22 -16 15 -27 19 -27 9z"/>
<path d="M1100 561 c0 -5 6 -12 13 -14 9 -4 8 -8 -3 -16 -8 -5 -11 -13 -7 -17
4 -4 15 -1 24 8 14 15 14 18 0 32 -18 18 -27 20 -27 7z"/>
<path d="M1131 514 c-7 -8 -10 -18 -7 -21 7 -7 36 16 36 28 0 13 -13 10 -29
-7z"/>
<path d="M1610 630 c0 -5 5 -10 10 -10 6 0 10 5 10 10 0 6 -4 10 -10 10 -5 0
-10 -4 -10 -10z"/>
<path d="M1440 480 c0 -5 5 -10 10 -10 6 0 10 5 10 10 0 6 -4 10 -10 10 -5 0
-10 -4 -10 -10z"/>
<path d="M1590 480 c0 -5 5 -10 10 -10 6 0 10 5 10 10 0 6 -4 10 -10 10 -5 0
-10 -4 -10 -10z"/>
<path d="M1990 630 c0 -5 5 -10 10 -10 6 0 10 5 10 10 0 6 -4 10 -10 10 -5 0
-10 -4 -10 -10z"/>
<path d="M1910 610 c0 -5 5 -10 10 -10 6 0 10 5 10 10 0 6 -4 10 -10 10 -5 0
-10 -4 -10 -10z"/>
<path d="M1930 561 c0 -6 10 -17 22 -25 12 -9 18 -19 14 -23 -4 -4 -11 -1 -16
7 -5 8 -12 11 -16 8 -3 -4 1 -14 10 -23 14 -15 17 -15 32 -1 14 14 13 18 -10
41 -27 27 -36 31 -36 16z"/>
<path d="M2980 561 c0 -5 6 -12 13 -14 9 -4 8 -8 -3 -16 -8 -5 -11 -13 -7 -17
4 -4 15 -1 24 8 14 15 14 18 0 32 -18 18 -27 20 -27 7z"/>
<path d="M3011 514 c-7 -8 -10 -18 -7 -21 7 -7 36 16 36 28 0 13 -13 10 -29
-7z"/>
<path d="M3490 630 c0 -5 5 -10 10 -10 6 0 10 5 10 10 0 6 -4 10 -10 10 -5 0
-10 -4 -10 -10z"/>
<path d="M3320 480 c0 -5 5 -10 10 -10 6 0 10 5 10 10 0 6 -4 10 -10 10 -5 0
-10 -4 -10 -10z"/>
<path d="M3470 480 c0 -5 5 -10 10 -10 6 0 10 5 10 10 0 6 -4 10 -10 10 -5 0
-10 -4 -10 -10z"/>
<path d="M3790 610 c0 -5 5 -10 10 -10 6 0 10 5 10 10 0 6 -4 10 -10 10 -5 0
-10 -4 -10 -10z"/>
<path d="M3810 562 c0 -13 49 -56 56 -49 3 3 -5 17 -19 31 -27 27 -37 32 -37
18z"/>
<path d="M3810 524 c0 -10 31 -36 37 -31 3 3 -2 13 -10 22 -16 15 -27 19 -27
9z"/>
<path d="M4280 630 c0 -5 5 -10 10 -10 6 0 10 5 10 10 0 6 -4 10 -10 10 -5 0
-10 -4 -10 -10z"/>
<path d="M4220 561 c0 -5 6 -12 13 -14 9 -4 8 -8 -3 -16 -8 -5 -11 -13 -7 -17
4 -4 15 -1 24 8 14 15 14 18 0 32 -18 18 -27 20 -27 7z"/>
<path d="M4251 514 c-7 -8 -10 -18 -7 -21 7 -7 36 16 36 28 0 13 -13 10 -29
-7z"/>
<path d="M4130 504 c0 -10 31 -36 37 -31 3 3 -2 13 -10 22 -16 15 -27 19 -27
9z"/>
<path d="M4730 630 c0 -5 5 -10 10 -10 6 0 10 5 10 10 0 6 -4 10 -10 10 -5 0
-10 -4 -10 -10z"/>
<path d="M4560 480 c0 -5 5 -10 10 -10 6 0 10 5 10 10 0 6 -4 10 -10 10 -5 0
-10 -4 -10 -10z"/>
<path d="M4710 480 c0 -5 5 -10 10 -10 6 0 10 5 10 10 0 6 -4 10 -10 10 -5 0
-10 -4 -10 -10z"/>
<path d="M780 630 c0 -5 5 -10 10 -10 6 0 10 5 10 10 0 6 -4 10 -10 10 -5 0
-10 -4 -10 -10z"/>
<path d="M500 180 c0 -5 5 -10 10 -10 6 0 10 5 10 10 0 6 -4 10 -10 10 -5 0
-10 -4 -10 -10z"/>
<path d="M970 330 c0 -5 5 -10 10 -10 6 0 10 5 10 10 0 6 -4 10 -10 10 -5 0
-10 -4 -10 -10z"/>
<path d="M880 180 c0 -5 5 -10 10 -10 6 0 10 5 10 10 0 6 -4 10 -10 10 -5 0
-10 -4 -10 -10z"/>
<path d="M910 180 c0 -5 5 -10 10 -10 6 0 10 5 10 10 0 6 -4 10 -10 10 -5 0
-10 -4 -10 -10z"/>
<path d="M840 160 c0 -5 5 -10 10 -10 6 0 10 5 10 10 0 6 -4 10 -10 10 -5 0
-10 -4 -10 -10z"/>
<path d="M950 160 c0 -5 5 -10 10 -10 6 0 10 5 10 10 0 6 -4 10 -10 10 -5 0
-10 -4 -10 -10z"/>
<path d="M1290 330 c0 -5 5 -10 10 -10 6 0 10 5 10 10 0 6 -4 10 -10 10 -5 0
-10 -4 -10 -10z"/>
<path d="M1370 160 c0 -5 5 -10 10 -10 6 0 10 5 10 10 0 6 -4 10 -10 10 -5 0
-10 -4 -10 -10z"/>
<path d="M1780 351 c0 -12 29 -35 36 -28 4 3 -1 13 -9 22 -17 17 -27 19 -27 6z"/>
<path d="M1740 180 c0 -5 5 -10 10 -10 6 0 10 5 10 10 0 6 -4 10 -10 10 -5 0
-10 -4 -10 -10z"/>
<path d="M1780 160 c0 -5 5 -10 10 -10 6 0 10 5 10 10 0 6 -4 10 -10 10 -5 0
-10 -4 -10 -10z"/>
<path d="M3161 324 c-18 -21 -6 -30 14 -11 8 9 15 18 15 21 0 11 -15 5 -29
-10z"/>
<path d="M3250 160 c0 -5 5 -10 10 -10 6 0 10 5 10 10 0 6 -4 10 -10 10 -5 0
-10 -4 -10 -10z"/>
<path d="M3620 180 c0 -5 5 -10 10 -10 6 0 10 5 10 10 0 6 -4 10 -10 10 -5 0
-10 -4 -10 -10z"/>
<path d="M3660 160 c0 -5 5 -10 10 -10 6 0 10 5 10 10 0 6 -4 10 -10 10 -5 0
-10 -4 -10 -10z"/>
<path d="M4090 330 c0 -5 5 -10 10 -10 6 0 10 5 10 10 0 6 -4 10 -10 10 -5 0
-10 -4 -10 -10z"/>
<path d="M4000 180 c0 -5 5 -10 10 -10 6 0 10 5 10 10 0 6 -4 10 -10 10 -5 0
-10 -4 -10 -10z"/>
<path d="M4030 180 c0 -5 5 -10 10 -10 6 0 10 5 10 10 0 6 -4 10 -10 10 -5 0
-10 -4 -10 -10z"/>
<path d="M4070 160 c0 -5 5 -10 10 -10 6 0 10 5 10 10 0 6 -4 10 -10 10 -5 0
-10 -4 -10 -10z"/>
<path d="M4410 330 c0 -5 5 -10 10 -10 6 0 10 5 10 10 0 6 -4 10 -10 10 -5 0
-10 -4 -10 -10z"/>
<path d="M4860 180 c0 -5 5 -10 10 -10 6 0 10 5 10 10 0 6 -4 10 -10 10 -5 0
-10 -4 -10 -10z"/>
</g>
</svg>
